<svg width="36" height="36" viewBox="0 0 36 36" fill="none" xmlns="http://www.w3.org/2000/svg">
<path d="M19.4523 9.98852L27.3295 12.0857M17.766 16.252L21.7029 17.3014M17.9623 28.0546L19.5365 28.4754C23.9915 29.6634 26.2191 30.2558 27.9747 29.2476C29.7287 28.2411 30.326 26.0251 31.5189 21.5964L33.2069 15.3313C34.4015 10.901 34.9972 8.68665 33.9841 6.94092C32.971 5.19519 30.7451 4.60283 26.2884 3.41646L24.7142 2.99571C20.2592 1.80769 18.0316 1.21533 16.2777 2.2235C14.522 3.23001 13.9247 5.446 12.7301 9.87466L11.0438 16.1398C9.84916 20.5701 9.25185 22.7845 10.2666 24.5302C11.2797 26.2743 13.5073 26.8683 17.9623 28.0546Z" stroke="white" stroke-width="2.47504" stroke-linecap="round" stroke-linejoin="round"/>
<path d="M18.0001 32.972L16.4293 33.401C11.9842 34.6104 9.76322 35.216 8.01089 34.188C6.26186 33.1617 5.66455 30.9045 4.47489 26.3867L2.79021 19.9978C1.59889 15.4817 1.00323 13.2228 2.0147 11.4441C2.88921 9.90461 4.79994 9.96071 7.27498 9.96071" stroke="white" stroke-width="2.47504" stroke-linecap="round" stroke-linejoin="round"/>
</svg>
