<svg width="220" height="86" viewBox="0 0 220 86" fill="none" xmlns="http://www.w3.org/2000/svg">
<path d="M4.08685 58.0101C3.96981 58.0813 3.87 58.1397 3.78743 58.1853C3.70487 58.231 3.63473 58.2658 3.57702 58.2898C3.24199 58.4065 2.97316 58.4111 2.77052 58.3036C2.56388 58.1864 2.37858 57.9307 2.21462 57.5363C1.8907 56.7572 2.06187 56.1107 2.72814 55.5968C3.32783 55.167 3.99361 54.7604 4.72548 54.3772C5.45334 53.9843 6.28377 53.5939 7.21677 53.206C8.46717 52.6862 9.75794 52.2905 11.0891 52.0191C12.4298 51.7437 13.7461 51.5857 15.0378 51.545C16.3351 51.4907 17.5846 51.5522 18.7864 51.7294C19.9842 51.897 21.0741 52.1715 22.0562 52.5528C23.0439 52.9206 23.8889 53.3928 24.5912 53.9695C25.2991 54.5325 25.807 55.1843 26.1149 55.925C26.4268 56.6752 26.4699 57.4978 26.244 58.3926C26.0238 59.2739 25.5936 60.1521 24.9535 61.0274C24.3134 61.9027 23.4947 62.7282 22.4973 63.5039C21.4999 64.2796 20.3856 64.9233 19.1544 65.4352C18.1733 65.8431 17.111 66.1776 15.9674 66.4388C14.8237 66.6999 13.5235 66.8964 12.0667 67.0283C11.4023 67.1127 10.9522 66.8712 10.7163 66.3037C10.6643 66.1786 10.6451 66.0512 10.6589 65.9214C10.6726 65.7916 10.6883 65.6666 10.706 65.5465C10.7334 65.4223 10.7579 65.3049 10.7796 65.1944C10.7973 65.0742 10.7862 64.966 10.7462 64.8698C10.5183 64.3216 10.2455 63.7468 9.92783 63.1456C9.6198 62.5404 9.28773 61.9452 8.93161 61.36C8.58511 60.7708 8.23138 60.2184 7.8704 59.7029C7.51504 59.1738 7.18286 58.714 6.87387 58.3236C6.56487 57.9331 6.28906 57.636 6.04643 57.4323C5.80942 57.215 5.63801 57.1283 5.53221 57.1723C5.36869 57.2403 5.1747 57.3435 4.95024 57.4819C4.73539 57.6164 4.44759 57.7924 4.08685 58.0101ZM9.54555 55.4698C9.26661 55.5858 9.16713 55.74 9.24711 55.9324C9.26711 55.9805 9.31552 56.0562 9.39237 56.1596C9.46921 56.2631 9.58847 56.4278 9.75016 56.6539C10.0047 57.0219 10.2664 57.4207 10.5353 57.8504C10.8042 58.2801 11.0971 58.7675 11.414 59.3126C11.7269 59.8481 12.0649 60.4578 12.4282 61.1416C12.7971 61.8117 13.2039 62.5732 13.6488 63.4261C13.7184 63.5664 13.9062 63.6519 14.2123 63.6826C14.5143 63.7037 14.8942 63.6811 15.3517 63.615C15.8053 63.5392 16.3106 63.425 16.8676 63.2724C17.4303 63.1062 17.9953 62.9051 18.5628 62.6691C19.3131 62.3572 19.9936 61.9727 20.6046 61.5157C21.2211 61.045 21.7271 60.5526 22.1225 60.0385C22.5276 59.5204 22.802 59.0001 22.9459 58.4778C23.0993 57.9515 23.0881 57.4767 22.9121 57.0535C22.6202 56.3514 22.0573 55.7844 21.2235 55.3527C20.3993 54.9169 19.3895 54.6317 18.1941 54.497C16.9947 54.3526 15.6562 54.362 14.1785 54.5251C12.6968 54.6786 11.1525 54.9935 9.54555 55.4698ZM32.6776 46.394C32.3217 46.542 32.0491 46.7681 31.8597 47.0724C31.6664 47.3672 31.5435 47.7228 31.4911 48.1395C31.4347 48.5465 31.438 49.002 31.5009 49.5061C31.5598 50.0005 31.6608 50.5282 31.8037 51.0892C31.9467 51.6502 32.1238 52.2253 32.3349 52.8144C32.5459 53.4035 32.7735 53.9914 33.0174 54.5781C33.3373 55.3476 33.6821 56.0955 34.0517 56.8217C34.427 57.5344 34.7466 58.2081 35.0105 58.8429C35.1824 59.2565 35.1625 59.6427 34.9507 60.0015C34.7429 60.3699 34.3552 60.6721 33.7877 60.9081C33.6819 60.9521 33.5577 60.9924 33.415 61.0292C33.2724 61.0659 33.1265 61.0814 32.9775 61.0757C32.8381 61.066 32.6983 61.0282 32.5581 60.9624C32.4316 60.9022 32.3275 60.7876 32.2459 60.6184C31.8074 59.808 31.3225 58.9943 30.7911 58.1774C30.2596 57.3605 29.6869 56.5664 29.0729 55.795C28.4646 55.0101 27.8073 54.2568 27.1011 53.5351C26.4046 52.8094 25.6631 52.1249 24.8768 51.4817C24.7398 51.3694 24.6165 51.2628 24.5068 51.1617C24.4067 51.0567 24.3327 50.9464 24.2847 50.831C24.2247 50.6867 24.2233 50.5068 24.2803 50.2913C24.343 50.0622 24.4405 49.8355 24.5729 49.6113C24.7149 49.383 24.8833 49.1776 25.0782 48.9951C25.2787 48.7989 25.4895 48.6549 25.7107 48.5629C26.0763 48.4109 26.5044 48.5318 26.9953 48.9257C27.4822 49.3098 28.0758 50.005 28.7762 51.0112C28.9042 51.1835 28.9987 51.3022 29.0595 51.3672C29.1204 51.4321 29.1749 51.4546 29.223 51.4346C29.3288 51.3906 29.3281 51.1991 29.221 50.8601C28.9565 49.8983 28.8278 49.0324 28.8348 48.2624C28.8378 47.4828 28.9581 46.7954 29.1957 46.2002C29.439 45.5914 29.788 45.074 30.2426 44.6481C30.7069 44.2182 31.2661 43.8673 31.9201 43.5953C32.2952 43.4394 32.6892 43.3151 33.1019 43.2224C33.5146 43.1298 33.9029 43.0868 34.2667 43.0935C34.6304 43.1002 34.9485 43.1598 35.2209 43.2722C35.4932 43.3845 35.6794 43.561 35.7793 43.8014C35.8513 43.9746 35.8988 44.1974 35.9218 44.4698C35.9505 44.7287 35.9531 44.9927 35.9297 45.2619C35.9022 45.5215 35.8435 45.7602 35.7536 45.9781C35.6693 46.1824 35.5502 46.3165 35.3963 46.3805C35.2232 46.4524 35.0349 46.4743 34.8314 46.4461C34.6239 46.4083 34.3999 46.3717 34.1596 46.3362C33.9288 46.2968 33.6877 46.273 33.4361 46.2648C33.1901 46.2429 32.9373 46.286 32.6776 46.394ZM43.6371 39.7053C44.1661 39.4854 44.7099 39.3552 45.2684 39.3148C45.8269 39.2744 46.3537 39.3204 46.8488 39.453C47.3439 39.5856 47.786 39.8079 48.1752 40.1199C48.574 40.4279 48.8754 40.8272 49.0793 41.3177C49.1633 41.5197 49.1972 41.7369 49.181 41.9693C49.1704 42.188 49.1182 42.4015 49.0243 42.6098C48.9263 42.8084 48.7944 42.993 48.6284 43.1635C48.468 43.3205 48.282 43.4429 48.0704 43.5309C48.0512 43.5389 48.0339 43.5517 48.0187 43.5693C48.0091 43.5733 47.9947 43.5793 47.9754 43.5873C47.9602 43.6049 47.9429 43.6177 47.9237 43.6257L48.4613 44.756C49.0716 46.1154 49.6819 47.0406 50.2921 47.5314C50.9119 48.0183 51.5056 48.1437 52.073 47.9078C52.275 47.8238 52.445 47.7306 52.5829 47.6281C52.7304 47.5217 52.8615 47.4164 52.9761 47.3123C53.0964 47.1946 53.2111 47.0906 53.3201 47.0001C53.4292 46.9096 53.5462 46.8384 53.6713 46.7864C53.8925 46.6945 54.1248 46.7107 54.3683 46.835C54.6215 46.9554 54.804 47.1503 54.916 47.4196C55.0279 47.6889 55.0341 48.0022 54.9345 48.3595C54.8445 48.7128 54.6771 49.0701 54.4324 49.4313C54.1838 49.7828 53.8758 50.1139 53.5086 50.4245C53.1414 50.7351 52.7413 50.9804 52.3085 51.1604C51.5583 51.4723 50.7714 51.4384 49.948 51.0588C49.1206 50.6695 48.3367 49.9237 47.5964 48.8214C47.4587 48.653 47.3417 48.5888 47.2456 48.6288C47.1301 48.6768 47.0531 48.7765 47.0146 48.9279C46.5622 50.5261 45.9234 51.8522 45.098 52.906C44.2687 53.9502 43.3298 54.6903 42.2814 55.1262C41.7909 55.3301 41.3184 55.4419 40.8641 55.4616C40.4097 55.4813 39.9891 55.4193 39.6022 55.2755C39.2209 55.1182 38.8753 54.884 38.5655 54.5728C38.2612 54.2481 38.0111 53.85 37.8152 53.3787C37.5393 52.7151 37.3936 51.9577 37.3783 51.1068C37.3725 50.2518 37.4717 49.3644 37.676 48.4447C37.8802 47.525 38.1754 46.607 38.5615 45.6906C38.9573 44.7702 39.4139 43.9148 39.9313 43.1244C40.4584 42.3299 41.037 41.6324 41.6673 41.032C42.2976 40.4315 42.9542 39.9893 43.6371 39.7053ZM45.2364 44.8953C45.2736 44.4963 45.3343 44.1946 45.4186 43.9904C45.4989 43.7765 45.6637 43.5895 45.913 43.4295C46.1127 43.3126 46.1905 43.2013 46.1465 43.0955C46.1145 43.0186 46.0516 42.9488 45.9579 42.8862C45.6712 42.7121 45.3889 42.5757 45.1109 42.4769C44.8289 42.3685 44.5196 42.3843 44.183 42.5243C43.8175 42.6762 43.4527 42.952 43.0886 43.3516C42.7245 43.7511 42.3808 44.2268 42.0574 44.7786C41.7397 45.3169 41.4488 45.906 41.1847 46.546C40.9262 47.1724 40.7218 47.7932 40.5714 48.4085C40.4211 49.0238 40.3361 49.6062 40.3165 50.1559C40.2968 50.7056 40.363 51.1632 40.5149 51.5287C40.6509 51.8557 40.8435 52.0746 41.0926 52.1854C41.3513 52.2921 41.6346 52.2815 41.9424 52.1536C42.7311 51.8256 43.418 51.0493 44.003 49.8246C44.5881 48.5999 44.9993 46.9568 45.2364 44.8953ZM59.1913 34.8292C59.653 34.6372 60.1067 34.4937 60.5522 34.3987C60.9938 34.2941 61.4009 34.2151 61.7736 34.1617C62.1422 34.0987 62.4628 34.0556 62.7352 34.0326C63.0037 34 63.1908 33.9617 63.2966 33.9177C63.3832 33.8817 63.4469 33.8044 63.4879 33.6858C63.5248 33.5577 63.579 33.4167 63.6505 33.2629C63.7219 33.1091 63.8358 32.9489 63.9922 32.7824C64.1446 32.6062 64.3795 32.4522 64.6969 32.3202C65.0624 32.1682 65.3909 32.1444 65.6825 32.2488C65.9701 32.3436 66.1719 32.5305 66.2878 32.8094C67.7515 36.3298 68.8749 39.3711 69.6582 41.9334C70.4375 44.4861 70.8777 46.6439 70.9789 48.4068C71.0801 50.1697 70.8467 51.5754 70.2785 52.6238C69.7104 53.6722 68.8156 54.4504 67.594 54.9583C67.0362 55.1902 66.4023 55.3071 65.6923 55.309C64.992 55.3068 64.3098 55.2125 63.6457 55.0261C62.9855 54.8493 62.394 54.5933 61.871 54.2579C61.3577 53.9186 61.011 53.5325 60.831 53.0997C60.7711 52.9554 60.778 52.7551 60.8519 52.4987C60.9259 52.2424 61.0354 51.9768 61.1807 51.7021C61.3259 51.4274 61.4928 51.1775 61.6813 50.9525C61.8697 50.7275 62.0505 50.579 62.2237 50.507C62.4064 50.431 62.5903 50.4392 62.7753 50.5315C62.9644 50.6334 63.1578 50.7729 63.3555 50.9502C63.5629 51.1234 63.7783 51.3159 64.0017 51.5276C64.2291 51.7489 64.4754 51.9342 64.7405 52.0835C65.0056 52.2327 65.2932 52.3275 65.6032 52.3678C65.9173 52.4177 66.2619 52.3647 66.637 52.2087C68.7339 51.3369 68.6334 47.6221 66.3355 41.0643C66.2156 40.7757 66.0738 40.6654 65.9103 40.7334C65.7757 40.7894 65.6979 40.9007 65.6769 41.0673C65.2806 42.6648 64.6045 44.0233 63.6485 45.1427C62.6981 46.2485 61.4871 47.1074 60.0155 47.7192C59.3326 48.0031 58.6606 48.1641 57.9995 48.202C57.3344 48.2304 56.7143 48.1498 56.1391 47.9602C55.5696 47.757 55.0634 47.4486 54.6206 47.0348C54.1738 46.6113 53.8224 46.0918 53.5665 45.4763C53.3146 44.8703 53.1724 44.23 53.1401 43.5552C53.1134 42.8669 53.1844 42.1831 53.3532 41.5037C53.5276 40.8108 53.7922 40.1311 54.1469 39.4647C54.5016 38.7983 54.9303 38.1744 55.4332 37.5931C55.932 37.0021 56.4965 36.4741 57.1267 36.0091C57.7625 35.5304 58.4507 35.1371 59.1913 34.8292ZM59.359 44.8786C60.6768 44.3307 61.7119 43.4152 62.4645 42.1322C63.2131 40.8395 63.6471 39.2377 63.7663 37.3267C63.7616 37.261 63.758 37.2117 63.7556 37.1788C63.7492 37.1364 63.7381 37.0959 63.7221 37.0574C63.6821 36.9612 63.5391 36.9022 63.2931 36.8804C63.0471 36.8586 62.7446 36.8772 62.3856 36.9362C62.0266 36.9952 61.6255 37.0887 61.1823 37.2165C60.7447 37.3308 60.3143 37.4759 59.8911 37.6518C59.2082 37.9357 58.5973 38.3251 58.0584 38.8199C57.5196 39.3146 57.0849 39.8564 56.7543 40.4451C56.4237 41.0337 56.2113 41.6353 56.1171 42.2499C56.0229 42.8644 56.0857 43.4361 56.3057 43.9651C56.5416 44.5326 56.9363 44.8987 57.4899 45.0634C58.0531 45.2241 58.6761 45.1625 59.359 44.8786ZM73.892 25.6206C73.4601 24.5818 73.9174 23.7825 75.264 23.2226C75.4949 23.1266 75.7228 23.1052 75.948 23.1582C76.1731 23.2113 76.3461 23.3424 76.4669 23.5517C76.7974 24.1024 77.1163 24.6523 77.4235 25.2014C77.7308 25.7505 78.0633 26.3738 78.4209 27.0712C78.7841 27.755 79.1906 28.5562 79.6402 29.4748C80.0954 30.3798 80.6314 31.4655 81.2482 32.732C81.3042 32.8667 81.3635 32.9549 81.4259 32.9966C81.498 33.0343 81.5629 33.0412 81.6206 33.0172C81.7072 32.9812 81.7578 32.8586 81.7724 32.6495C81.7995 31.7922 81.897 30.9958 82.0651 30.2603C82.2291 29.5152 82.46 28.8496 82.7577 28.2633C83.0514 27.6673 83.4112 27.1624 83.837 26.7485C84.2684 26.3209 84.7535 25.9952 85.2921 25.7712C86.0039 25.4753 86.7323 25.4094 87.4773 25.5734C88.2224 25.7374 88.9509 26.1058 89.6628 26.6784C90.3747 27.2511 91.0612 28.0205 91.7223 28.9865C92.3794 29.943 92.9779 31.0704 93.5178 32.3689C93.6657 32.7248 93.7588 33.0302 93.7971 33.285C93.841 33.5262 93.8284 33.7402 93.7593 33.9268C93.6903 34.1135 93.5551 34.2768 93.3539 34.4169C93.1567 34.5666 92.8946 34.7094 92.5675 34.8454C92.1155 35.0333 91.7524 35.0827 91.4785 34.9936C91.2141 34.9004 91.006 34.6711 90.854 34.3056C90.4781 33.4014 90.0617 32.5762 89.6047 31.8298C89.1534 31.0699 88.6959 30.4309 88.2324 29.9129C87.7689 29.3949 87.3188 29.018 86.8823 28.7821C86.4554 28.5422 86.0785 28.4902 85.7514 28.6261C85.0108 28.9341 84.5201 29.8431 84.2794 31.3534C84.0482 32.8596 84.0374 34.9906 84.2468 37.7464C84.2618 37.9996 84.2512 38.2183 84.215 38.4026C84.1788 38.5869 84.1114 38.7503 84.0127 38.8928C83.9237 39.0314 83.7938 39.1531 83.623 39.2579C83.4563 39.3724 83.2478 39.4816 82.9978 39.5856C82.488 39.7975 82.0825 39.8533 81.7813 39.7529C81.4897 39.6485 81.2423 39.3791 81.0391 38.9446C80.2856 37.295 79.516 35.7423 78.7302 34.2866C77.9501 32.8172 77.2224 31.501 76.547 30.3378C75.8772 29.161 75.3019 28.1705 74.8209 27.3665C74.3456 26.5488 74.0359 25.9668 73.892 25.6206ZM106.907 24.4839C107.086 24.1274 107.31 23.8932 107.58 23.7812C107.734 23.7173 107.889 23.6978 108.046 23.7227C108.203 23.7477 108.393 23.8099 108.614 23.9095C108.851 24.0707 109.028 24.2115 109.145 24.3317C109.269 24.4384 109.358 24.5591 109.414 24.6937C109.534 24.9823 109.504 25.3164 109.323 25.6961C109.022 26.2727 108.665 26.827 108.255 27.3587C107.84 27.8808 107.383 28.3696 106.885 28.8252C106.386 29.2807 105.846 29.6914 105.265 30.0571C104.688 30.4325 104.091 30.7481 103.476 31.004C102.696 31.328 101.923 31.5309 101.157 31.6128C100.394 31.7044 99.6669 31.6794 98.9763 31.5378C98.2954 31.3923 97.6662 31.1406 97.0887 30.7828C96.5073 30.4153 96.0056 29.9414 95.5838 29.3609C95.3853 29.1276 95.2315 28.9884 95.1226 28.9435C95.0193 28.8849 94.8858 28.8896 94.7223 28.9576C94.3664 29.1056 94.0563 29.133 93.792 29.0398C93.5276 28.9467 93.3275 28.7366 93.1915 28.4095C93.1355 28.2749 93.1091 28.1843 93.1124 28.1378L93.0213 27.8373C92.9254 27.471 92.9128 27.183 92.9835 26.9731C93.0638 26.7592 93.253 26.5903 93.5512 26.4663L93.7676 26.3763C94.1716 26.2084 94.3773 25.9028 94.3849 25.4597C94.4071 24.6721 94.5351 23.9082 94.7689 23.168C95.0026 22.4278 95.3281 21.7453 95.7452 21.1207C96.1584 20.4864 96.648 19.9274 97.2141 19.4439C97.7858 18.9467 98.4131 18.5562 99.096 18.2723C99.8077 17.9764 100.515 17.8062 101.219 17.7619C101.928 17.704 102.59 17.7618 103.203 17.9353C103.817 18.1089 104.356 18.3869 104.819 18.7695C105.292 19.1481 105.647 19.6211 105.883 20.1886C106.047 20.5829 106.12 20.9756 106.102 21.3666C106.084 21.7577 105.983 22.1382 105.798 22.5082C105.61 22.8687 105.341 23.2118 104.991 23.5377C104.651 23.8595 104.231 24.1525 103.732 24.4165L98.9354 27.0029C98.743 27.0829 98.6043 27.197 98.5192 27.3452C98.4438 27.4893 98.4401 27.6432 98.5081 27.8067C98.612 28.0568 98.8034 28.2592 99.0821 28.4141C99.3705 28.565 99.7065 28.6678 100.09 28.7226C100.48 28.7637 100.898 28.7532 101.346 28.6911C101.804 28.6249 102.249 28.5019 102.682 28.3219C103.096 28.15 103.503 27.9355 103.904 27.6786C104.31 27.4081 104.693 27.1079 105.052 26.7781C105.421 26.4442 105.763 26.0875 106.079 25.708C106.391 25.3188 106.667 24.9108 106.907 24.4839ZM102.142 22.0992C102.275 22.0103 102.372 21.891 102.433 21.7412C102.491 21.5818 102.486 21.4203 102.418 21.2568C102.358 21.1125 102.249 20.9999 102.092 20.9188C101.934 20.8378 101.743 20.7871 101.521 20.7669C101.294 20.7371 101.048 20.7433 100.784 20.7856C100.519 20.8279 100.253 20.905 99.9833 21.017C99.5889 21.1809 99.2089 21.4066 98.8433 21.694C98.4777 21.9813 98.1666 22.2912 97.9099 22.6235C97.6493 22.9462 97.4611 23.267 97.3455 23.5858C97.2258 23.895 97.212 24.1602 97.304 24.3815C97.396 24.6027 97.5766 24.6573 97.8459 24.5454C98.0094 24.4774 98.266 24.3482 98.6155 24.1577C98.965 23.9673 99.3509 23.7561 99.7734 23.524C100.192 23.2823 100.613 23.0339 101.037 22.7786C101.461 22.5233 101.83 22.2968 102.142 22.0992ZM114.54 12.3587C114.185 12.5067 113.912 12.7329 113.723 13.0372C113.529 13.3319 113.406 13.6876 113.354 14.1042C113.298 14.5112 113.301 14.9668 113.364 15.4708C113.423 15.9653 113.524 16.493 113.667 17.054C113.81 17.615 113.987 18.19 114.198 18.7792C114.409 19.3683 114.636 19.9562 114.88 20.5429C115.2 21.3124 115.545 22.0602 115.915 22.7865C116.29 23.4991 116.609 24.1728 116.873 24.8077C117.045 25.2213 117.025 25.6075 116.814 25.9663C116.606 26.3347 116.218 26.6369 115.651 26.8728C115.545 26.9168 115.421 26.9572 115.278 26.9939C115.135 27.0307 114.989 27.0462 114.84 27.0405C114.701 27.0307 114.561 26.993 114.421 26.9272C114.294 26.867 114.19 26.7523 114.109 26.5832C113.67 25.7727 113.185 24.9591 112.654 24.1421C112.123 23.3252 111.55 22.5311 110.936 21.7598C110.327 20.9749 109.67 20.2216 108.964 19.4999C108.267 18.7742 107.526 18.0897 106.74 17.4465C106.603 17.3342 106.479 17.2275 106.37 17.1265C106.27 17.0214 106.196 16.9112 106.148 16.7958C106.088 16.6515 106.086 16.4716 106.143 16.2561C106.206 16.027 106.303 15.8003 106.436 15.576C106.578 15.3478 106.746 15.1424 106.941 14.9598C107.142 14.7637 107.352 14.6196 107.574 14.5276C107.939 14.3757 108.367 14.4966 108.858 14.8904C109.345 15.2746 109.939 15.9698 110.639 16.9759C110.767 17.1483 110.862 17.267 110.922 17.3319C110.983 17.3969 111.038 17.4193 111.086 17.3993C111.192 17.3554 111.191 17.1638 111.084 16.8248C110.819 15.8631 110.691 14.9972 110.698 14.2272C110.701 13.4475 110.821 12.7601 111.059 12.1649C111.302 11.5562 111.651 11.0388 112.106 10.6129C112.57 10.1829 113.129 9.83201 113.783 9.56008C114.158 9.40412 114.552 9.27983 114.965 9.1872C115.378 9.09457 115.766 9.0516 116.13 9.05829C116.493 9.06498 116.811 9.12452 117.084 9.23691C117.356 9.3493 117.542 9.52573 117.642 9.76619C117.714 9.93932 117.762 10.1621 117.785 10.4346C117.813 10.6934 117.816 10.9574 117.793 11.2266C117.765 11.4862 117.706 11.725 117.617 11.9429C117.532 12.1471 117.413 12.2812 117.259 12.3452C117.086 12.4172 116.898 12.4391 116.694 12.4109C116.487 12.3731 116.263 12.3364 116.022 12.301C115.792 12.2616 115.551 12.2377 115.299 12.2295C115.053 12.2077 114.8 12.2508 114.54 12.3587ZM132.646 13.7826C132.825 13.4262 133.049 13.192 133.319 13.08C133.473 13.016 133.628 12.9965 133.785 13.0215C133.942 13.0464 134.132 13.1087 134.354 13.2082C134.59 13.3694 134.767 13.5102 134.884 13.6305C135.008 13.7372 135.097 13.8578 135.153 13.9925C135.273 14.281 135.243 14.6151 135.062 14.9948C134.761 15.5715 134.405 16.1257 133.994 16.6574C133.579 17.1796 133.122 17.6684 132.624 18.1239C132.125 18.5795 131.585 18.9901 131.004 19.3559C130.427 19.7312 129.83 20.0469 129.215 20.3028C128.436 20.6267 127.663 20.8296 126.896 20.9116C126.133 21.0031 125.406 20.9781 124.715 20.8366C124.034 20.691 123.405 20.4393 122.828 20.0815C122.246 19.7141 121.745 19.2401 121.323 18.6597C121.124 18.4263 120.971 18.2872 120.862 18.2422C120.758 18.1837 120.625 18.1884 120.461 18.2564C120.105 18.4043 119.795 18.4317 119.531 18.3386C119.267 18.2454 119.067 18.0353 118.931 17.7083C118.875 17.5736 118.848 17.4831 118.851 17.4366L118.76 17.136C118.664 16.7698 118.652 16.4817 118.723 16.2718C118.803 16.058 118.992 15.889 119.29 15.7651L119.507 15.6751C119.911 15.5071 120.116 15.2016 120.124 14.7585C120.146 13.9709 120.274 13.2069 120.508 12.4667C120.742 11.7265 121.067 11.0441 121.484 10.4194C121.897 9.78511 122.387 9.22619 122.953 8.74266C123.525 8.2455 124.152 7.85496 124.835 7.57103C125.547 7.27511 126.254 7.10498 126.958 7.06066C127.667 7.00271 128.329 7.06051 128.942 7.23407C129.556 7.40762 130.095 7.68568 130.558 8.06825C131.031 8.44682 131.386 8.91985 131.622 9.48734C131.786 9.8817 131.859 10.2744 131.841 10.6654C131.823 11.0564 131.722 11.4369 131.537 11.807C131.349 12.1674 131.08 12.5106 130.73 12.8364C130.39 13.1583 129.97 13.4512 129.471 13.7152L124.674 16.3017C124.482 16.3817 124.343 16.4957 124.258 16.6439C124.183 16.7881 124.179 16.9419 124.247 17.1054C124.351 17.3555 124.542 17.558 124.821 17.7129C125.11 17.8637 125.446 17.9665 125.829 18.0213C126.219 18.0625 126.637 18.052 127.085 17.9898C127.543 17.9237 127.988 17.8006 128.421 17.6207C128.835 17.4487 129.242 17.2343 129.643 16.9774C130.049 16.7069 130.432 16.4067 130.791 16.0768C131.16 15.743 131.502 15.3863 131.818 15.0067C132.13 14.6175 132.406 14.2095 132.646 13.7826ZM127.881 11.3979C128.014 11.3091 128.111 11.1898 128.172 11.04C128.23 10.8806 128.225 10.7191 128.157 10.5556C128.097 10.4113 127.988 10.2986 127.831 10.2176C127.673 10.1365 127.483 10.0859 127.26 10.0657C127.033 10.0359 126.787 10.0421 126.523 10.0844C126.259 10.1266 125.992 10.2037 125.722 10.3157C125.328 10.4797 124.948 10.7053 124.582 10.9927C124.217 11.2801 123.906 11.5899 123.649 11.9223C123.388 12.245 123.2 12.5658 123.085 12.8846C122.965 13.1938 122.951 13.459 123.043 13.6802C123.135 13.9015 123.316 13.9561 123.585 13.8441C123.748 13.7761 124.005 13.6469 124.355 13.4565C124.704 13.266 125.09 13.0548 125.512 12.8228C125.931 12.5811 126.352 12.3326 126.776 12.0773C127.2 11.8221 127.569 11.5956 127.881 11.3979Z" fill="black"/>
<path d="M204.154 34.9409C194.639 39.7462 185.756 44.1697 176.923 48.7307C176.291 49.1125 176.04 50.1331 174.983 51.9083C179.546 50.8944 183.202 50.3602 186.662 49.2759C195.764 46.3253 204.631 43.1485 213.635 39.9229C214.726 39.5319 215.867 39.2784 216.86 38.6124C220.16 36.6541 220.55 33.8766 217.507 31.398C216.011 30.2275 214.427 29.2433 212.756 28.4456C206.442 25.4318 200.042 22.6045 193.642 19.7771C192.527 19.2453 191.152 19.2726 189.17 18.8965C191.41 26.0074 199.057 25.44 202.528 30.4029C201.202 30.5678 200.061 30.8212 199.008 30.8883C158.529 33.9082 122.227 48.1552 89.2142 71.1541C85.7394 73.4851 82.598 76.3173 79.4074 79.012C77.7439 80.3838 76.6488 82.483 78.5777 84.4297C80.3701 86.4253 82.2799 85.7411 84.1178 83.9965C104.595 64.2472 130.071 53.7237 156.411 44.7526C170.102 40.0027 184.013 36.7258 198.379 35.1479C200.163 34.9739 201.998 34.9375 204.154 34.9409Z" fill="black"/>
</svg>
