<svg width="34" height="30" viewBox="0 0 34 30" fill="none" xmlns="http://www.w3.org/2000/svg">
<path d="M4.0625 0.477051C3.10523 0.477051 2.18718 0.857323 1.51029 1.53421C0.833398 2.2111 0.453125 3.12916 0.453125 4.08643V10.8102C1.5308 10.1214 2.7835 9.75629 4.0625 9.7583H29.8438C31.172 9.7583 32.4116 10.1461 33.4531 10.8102V8.21143C33.4531 7.25416 33.0729 6.3361 32.396 5.65921C31.7191 4.98232 30.801 4.60205 29.8438 4.60205H19.8695C19.8017 4.60217 19.7346 4.58894 19.672 4.5631C19.6093 4.53727 19.5524 4.49934 19.5044 4.45149L16.5881 1.53511C15.9115 0.858114 14.9938 0.477529 14.0368 0.477051H4.0625ZM4.0625 12.8521C3.10523 12.8521 2.18718 13.2323 1.51029 13.9092C0.833398 14.5861 0.453125 15.5042 0.453125 16.4614V25.7427C0.453125 27.7351 2.07012 29.3521 4.0625 29.3521H29.8438C30.801 29.3521 31.7191 28.9718 32.396 28.2949C33.0729 27.618 33.4531 26.6999 33.4531 25.7427V16.4614C33.4531 15.5042 33.0729 14.5861 32.396 13.9092C31.7191 13.2323 30.801 12.8521 29.8438 12.8521H4.0625Z" fill="white"/>
</svg>
