<svg width="11" height="15" viewBox="0 0 11 15" fill="none" xmlns="http://www.w3.org/2000/svg">
<path d="M5.32497 0.162087C5.23135 0.12011 5.12701 0.108183 5.02633 0.127948C4.92564 0.147713 4.83356 0.1982 4.76275 0.272458C4.69374 0.343608 4.64368 0.430932 4.61715 0.526436C4.59062 0.621941 4.58847 0.722574 4.6109 0.819124C4.68423 1.14505 4.72275 1.48579 4.72275 1.83394C4.72275 2.63097 4.52201 3.18949 4.17609 3.65246C3.82498 4.12283 3.31683 4.50579 2.67461 4.93764C2.66461 4.94451 2.6552 4.95219 2.64646 4.9606L2.56868 5.03912C1.75656 5.56307 1.11369 6.31115 0.717873 7.19284C0.322052 8.07453 0.190243 9.05204 0.338397 10.0071C0.486551 10.9621 0.908317 11.8538 1.55266 12.5741C2.197 13.2944 3.03629 13.8126 3.96898 14.0659C4.90167 14.3191 5.88777 14.2967 6.80796 14.0012C7.72815 13.7057 8.54298 13.1499 9.15385 12.401C9.76473 11.652 10.1455 10.7421 10.25 9.78132C10.3545 8.82052 10.1783 7.85002 9.74275 6.98727C9.72901 6.96005 9.70876 6.93665 9.68381 6.91914C9.65885 6.90163 9.62996 6.89055 9.5997 6.88689C9.56943 6.88323 9.53873 6.88709 9.51032 6.89814C9.48191 6.90919 9.45666 6.92708 9.43682 6.95023L9.28275 7.12875C8.63238 7.88875 8.10719 8.50282 7.0309 8.7769C6.98497 8.78801 6.95683 8.77986 6.93683 8.76727C6.90489 8.74487 6.8812 8.7126 6.86942 8.67542C6.85001 8.62411 6.84486 8.56851 6.85451 8.51452C6.86416 8.46052 6.88826 8.41015 6.92423 8.36875C7.49979 7.74431 7.90868 6.8969 8.0546 5.69171C8.32868 3.43394 7.30275 1.02949 5.32497 0.162087Z" fill="white"/>
</svg>
