<svg width="34" height="31" viewBox="0 0 34 31" fill="none" xmlns="http://www.w3.org/2000/svg">
<path d="M28.088 19.7653C28.6655 18.3628 28.979 16.8613 28.979 15.2113C28.979 14.0233 28.7975 12.8848 28.484 11.8288C27.4115 12.0763 26.2895 12.2083 25.118 12.2083C22.7189 12.2109 20.3542 11.6366 18.2235 10.5339C16.0928 9.4312 14.2584 7.8324 12.875 5.87228C11.3965 9.454 8.60433 12.3347 5.0705 13.9243C5.0045 14.3368 5.0045 14.7823 5.0045 15.2113C5.0045 16.7865 5.31477 18.3464 5.9176 19.8018C6.52043 21.2571 7.40402 22.5795 8.5179 23.6934C10.7675 25.943 13.8186 27.2068 17 27.2068C18.7325 27.2068 20.399 26.8273 21.9005 26.1508C22.841 27.9493 23.27 28.8403 23.237 28.8403C20.531 29.7478 18.4355 30.1933 17 30.1933C13.007 30.1933 9.1955 28.6258 6.3905 25.8043C4.68283 24.1047 3.41435 22.0151 2.6945 19.7158H0.5V12.2083H2.2985C2.8434 9.55592 4.09616 7.10055 5.92386 5.1027C7.75156 3.10485 10.086 1.63905 12.6795 0.860828C15.273 0.0826075 18.0288 0.0210001 20.6545 0.682543C23.2802 1.34409 25.6778 2.7041 27.593 4.61828C29.6716 6.68998 31.0898 9.33115 31.6685 12.2083H33.5V19.7158H33.401L27.527 25.1113L18.782 24.1213V21.3658H26.7515L28.088 19.7653ZM12.4955 14.8318C12.9905 14.8318 13.469 15.0298 13.8155 15.3928C14.1637 15.7438 14.3591 16.2183 14.3591 16.7128C14.3591 17.2073 14.1637 17.6817 13.8155 18.0328C13.469 18.3793 12.9905 18.5773 12.4955 18.5773C11.456 18.5773 10.6145 17.7523 10.6145 16.7128C10.6145 15.6733 11.456 14.8318 12.4955 14.8318ZM21.488 14.8318C22.5275 14.8318 23.3525 15.6733 23.3525 16.7128C23.3525 17.7523 22.5275 18.5773 21.488 18.5773C20.4485 18.5773 19.607 17.7523 19.607 16.7128C19.607 16.2139 19.8052 15.7355 20.1579 15.3827C20.5107 15.03 20.9891 14.8318 21.488 14.8318Z" fill="white"/>
</svg>
