<svg width="1920" height="2286" viewBox="0 0 1920 2286" fill="none" xmlns="http://www.w3.org/2000/svg">
<g opacity="0.4">
<mask id="mask0_62_70" style="mask-type:alpha" maskUnits="userSpaceOnUse" x="178" y="-167" width="1549" height="1873">
<rect x="339.817" y="-166.26" width="1392.23" height="1750.53" transform="rotate(5.30217 339.817 -166.26)" fill="url(#paint0_linear_62_70)"/>
</mask>
<g mask="url(#mask0_62_70)">
<path d="M1435.32 1064.61C1409.11 1347.02 1158.92 1554.72 876.501 1528.51C594.085 1502.3 386.389 1252.11 412.598 969.694C438.808 687.278 653.682 860.128 936.098 886.338C1218.51 912.548 1461.53 782.192 1435.32 1064.61Z" fill="#4A8FEF"/>
<g filter="url(#filter0_f_62_70)">
<path d="M1434.37 1074.8C1414.08 1293.42 1168.69 1449.39 886.271 1423.18C603.855 1396.97 391.359 1198.51 411.647 979.891C431.936 761.276 677.327 605.302 959.742 631.511C1242.16 657.721 1454.65 856.19 1434.37 1074.8Z" fill="#4A8FEF"/>
</g>
<g filter="url(#filter1_f_62_70)">
<ellipse cx="924.897" cy="1006.97" rx="513.557" ry="397.537" transform="rotate(5.30217 924.897 1006.97)" fill="#4A8FEF"/>
</g>
<g filter="url(#filter2_f_62_70)">
<ellipse cx="930.103" cy="950.895" rx="513.557" ry="399.243" transform="rotate(5.30217 930.103 950.895)" fill="#4A8FEF"/>
</g>
<g filter="url(#filter3_f_62_70)">
<ellipse cx="945.712" cy="782.711" rx="513.557" ry="397.537" transform="rotate(5.30217 945.712 782.711)" fill="#4A8FEF"/>
</g>
<g filter="url(#filter4_f_62_70)">
<ellipse cx="966.838" cy="555.064" rx="431.661" ry="397.537" transform="rotate(5.30217 966.838 555.064)" fill="#4A8FEF"/>
</g>
</g>
<mask id="mask1_62_70" style="mask-type:alpha" maskUnits="userSpaceOnUse" x="320" y="-22" width="2183" height="2016">
<rect x="1897.06" y="-21.7368" width="1392.23" height="1750.53" transform="rotate(64.2136 1897.06 -21.7368)" fill="#2E58FE"/>
</mask>
<g mask="url(#mask1_62_70)">
<path d="M1408.65 1551.99C1153.27 1675.38 846.213 1568.37 722.83 1312.98C599.446 1057.6 706.456 750.542 961.842 627.158C1217.23 503.775 1180.16 777.04 1303.54 1032.43C1426.92 1287.81 1664.04 1428.61 1408.65 1551.99Z" fill="#4A8FEF"/>
<g filter="url(#filter5_f_62_70)">
<path d="M1399.44 1556.45C1201.75 1651.96 941.465 1522.35 818.081 1266.97C694.698 1011.58 754.936 727.122 952.627 631.612C1150.32 536.103 1410.6 665.709 1533.98 921.095C1657.37 1176.48 1597.13 1460.94 1399.44 1556.45Z" fill="#4A8FEF"/>
</g>
<g filter="url(#filter6_f_62_70)">
<ellipse cx="1194.47" cy="1085.12" rx="513.557" ry="397.537" transform="rotate(64.2136 1194.47 1085.12)" fill="#4A8FEF"/>
</g>
<g filter="url(#filter7_f_62_70)">
<ellipse cx="1245.16" cy="1060.63" rx="513.557" ry="399.243" transform="rotate(64.2136 1245.16 1060.63)" fill="#4A8FEF"/>
</g>
<g filter="url(#filter8_f_62_70)">
<ellipse cx="1397.25" cy="987.151" rx="513.557" ry="397.537" transform="rotate(64.2136 1397.25 987.151)" fill="#4A8FEF"/>
</g>
<g filter="url(#filter9_f_62_70)">
<ellipse cx="1603.12" cy="887.694" rx="431.661" ry="397.537" transform="rotate(64.2136 1603.12 887.694)" fill="#4A8FEF"/>
</g>
</g>
</g>
<g opacity="0.4">
<mask id="mask2_62_70" style="mask-type:alpha" maskUnits="userSpaceOnUse" x="352" y="852" width="2166" height="768">
<rect x="2517.2" y="1052.18" width="569.493" height="2119.98" transform="rotate(95.4175 2517.2 1052.18)" fill="url(#paint1_linear_62_70)"/>
</mask>
<g mask="url(#mask2_62_70)">
<path d="M1115.09 1414.14C773.135 1381.71 504.804 1261.79 515.757 1146.29C526.711 1030.79 812.801 963.45 1154.76 995.88C1496.71 1028.31 1304.27 1104.53 1293.32 1220.03C1282.36 1335.53 1457.05 1446.57 1115.09 1414.14Z" fill="#DFE4FF"/>
<g filter="url(#filter10_f_62_70)">
<path d="M1102.74 1412.97C838.039 1387.87 632.334 1273.89 643.288 1158.39C654.241 1042.88 877.706 969.604 1142.41 994.707C1407.11 1019.81 1612.82 1133.79 1601.86 1249.29C1590.91 1364.79 1367.45 1438.07 1102.74 1412.97Z" fill="#DFE4FF"/>
</g>
<g filter="url(#filter11_f_62_70)">
<ellipse cx="1147.26" cy="1206.18" rx="210.07" ry="481.439" transform="rotate(95.4175 1147.26 1206.18)" fill="#DFE4FF"/>
</g>
<g filter="url(#filter12_f_62_70)">
<ellipse cx="1215.15" cy="1212.62" rx="210.07" ry="483.505" transform="rotate(95.4175 1215.15 1212.62)" fill="#DFE4FF"/>
</g>
<g filter="url(#filter13_f_62_70)">
<ellipse cx="1418.79" cy="1231.93" rx="210.07" ry="481.439" transform="rotate(95.4175 1418.79 1231.93)" fill="#DFE4FF"/>
</g>
<g filter="url(#filter14_f_62_70)">
<ellipse cx="1694.43" cy="1258.07" rx="176.571" ry="481.439" transform="rotate(95.4175 1694.43 1258.07)" fill="#DFE4FF"/>
</g>
</g>
<mask id="mask3_62_70" style="mask-type:alpha" maskUnits="userSpaceOnUse" x="-40" y="975" width="2497" height="871">
<rect width="1473.32" height="1254.32" transform="matrix(-0.994335 0.106288 -0.822244 -0.569136 2456.8 1689.05)" fill="url(#paint2_linear_62_70)"/>
</mask>
<g mask="url(#mask3_62_70)">
<path d="M526.308 1365.9C359.115 1250.25 465.559 1130.65 764.056 1098.79C1062.55 1066.92 1440.07 1134.84 1607.26 1250.5C1774.46 1366.15 1442.73 1329.9 1144.23 1361.77C845.731 1393.64 693.501 1481.56 526.308 1365.9Z" fill="#4A8FEF"/>
<g filter="url(#filter15_f_62_70)">
<path d="M520.272 1361.73C390.85 1272.2 527.913 1173.79 826.41 1141.92C1124.91 1110.05 1471.8 1156.79 1601.23 1246.32C1730.65 1335.85 1593.59 1434.26 1295.09 1466.13C996.59 1498 649.693 1451.26 520.272 1361.73Z" fill="#4A8FEF"/>
</g>
<g filter="url(#filter16_f_62_70)">
<ellipse cx="543.467" cy="284.85" rx="543.467" ry="284.85" transform="matrix(-0.994499 0.106175 -0.822675 -0.569089 1847.64 1416.78)" fill="#4A8FEF"/>
</g>
<g filter="url(#filter17_f_62_70)">
<ellipse cx="543.467" cy="286.072" rx="543.467" ry="286.072" transform="matrix(-0.994499 0.106175 -0.822675 -0.569089 1881.83 1440.43)" fill="#4A8FEF"/>
</g>
<g filter="url(#filter18_f_62_70)">
<ellipse cx="543.467" cy="284.85" rx="543.467" ry="284.85" transform="matrix(-0.994499 0.106175 -0.822675 -0.569089 1980.4 1508.61)" fill="#4A8FEF"/>
</g>
<g filter="url(#filter19_f_62_70)">
<ellipse cx="456.801" cy="284.85" rx="456.801" ry="284.85" transform="matrix(-0.994499 0.106175 -0.822675 -0.569089 2028.98 1611.04)" fill="#4A8FEF"/>
</g>
</g>
</g>
<g opacity="0.4">
<mask id="mask4_62_70" style="mask-type:alpha" maskUnits="userSpaceOnUse" x="-491" y="-467" width="2098" height="2297">
<rect x="-490.113" y="118.153" width="1481.63" height="1862.93" transform="rotate(-23.2549 -490.113 118.153)" fill="url(#paint3_linear_62_70)"/>
</mask>
<g mask="url(#mask4_62_70)">
<path d="M1160.07 711.38C1279.24 988.699 1151.04 1310.12 873.724 1429.29C596.405 1548.47 274.984 1420.27 155.81 1142.95C36.6364 865.628 325.421 917.886 602.74 798.712C880.059 679.538 1040.9 434.062 1160.07 711.38Z" fill="#4A8FEF"/>
<g filter="url(#filter20_f_62_70)">
<path d="M1164.38 721.383C1256.63 936.052 1106.6 1206.69 829.282 1325.86C551.963 1445.03 252.368 1367.62 160.117 1152.95C67.866 938.282 217.893 667.649 495.212 548.475C772.531 429.301 1072.13 506.715 1164.38 721.383Z" fill="#4A8FEF"/>
</g>
<g filter="url(#filter21_f_62_70)">
<ellipse cx="653.641" cy="917.153" rx="546.532" ry="423.063" transform="rotate(-23.2549 653.641 917.153)" fill="#4A8FEF"/>
</g>
<g filter="url(#filter22_f_62_70)">
<ellipse cx="629.989" cy="862.104" rx="546.532" ry="424.879" transform="rotate(-23.2549 629.989 862.104)" fill="#4A8FEF"/>
</g>
<g filter="url(#filter23_f_62_70)">
<ellipse cx="559.014" cy="696.948" rx="546.532" ry="423.063" transform="rotate(-23.2549 559.014 696.948)" fill="#4A8FEF"/>
</g>
<g filter="url(#filter24_f_62_70)">
<ellipse cx="462.948" cy="473.409" rx="459.377" ry="423.063" transform="rotate(-23.2549 462.948 473.409)" fill="#4A8FEF"/>
</g>
</g>
<mask id="mask5_62_70" style="mask-type:alpha" maskUnits="userSpaceOnUse" x="-345" y="464" width="1269" height="1068">
<rect x="-344.617" y="1373.94" width="917.637" height="1153.79" transform="rotate(-82.1664 -344.617 1373.94)" fill="url(#paint4_linear_62_70)"/>
</mask>
<g mask="url(#mask5_62_70)">
<path d="M497.756 688.424C682.955 713.903 812.433 884.692 786.953 1069.89C761.473 1255.09 590.684 1384.57 405.485 1359.09C220.286 1333.61 340.358 1197.15 365.838 1011.95C391.317 826.755 312.557 662.944 497.756 688.424Z" fill="#4A8FEF"/>
<g filter="url(#filter25_f_62_70)">
<path d="M504.444 689.345C647.804 709.069 743.365 875.191 717.885 1060.39C692.405 1245.59 555.534 1379.73 412.174 1360.01C268.814 1340.29 173.253 1174.16 198.733 988.965C224.212 803.766 361.084 669.621 504.444 689.345Z" fill="#4A8FEF"/>
</g>
<g filter="url(#filter26_f_62_70)">
<ellipse cx="444.942" cy="1022.84" rx="338.491" ry="262.021" transform="rotate(-82.1664 444.942 1022.84)" fill="#4A8FEF"/>
</g>
<g filter="url(#filter27_f_62_70)">
<ellipse cx="408.171" cy="1017.78" rx="338.491" ry="263.146" transform="rotate(-82.1664 408.171 1017.78)" fill="#4A8FEF"/>
</g>
<g filter="url(#filter28_f_62_70)">
<ellipse cx="297.883" cy="1002.6" rx="338.491" ry="262.021" transform="rotate(-82.1664 297.883 1002.6)" fill="#4A8FEF"/>
</g>
<g filter="url(#filter29_f_62_70)">
<ellipse cx="148.6" cy="982.067" rx="284.513" ry="262.021" transform="rotate(-82.1664 148.6 982.067)" fill="#4A8FEF"/>
</g>
</g>
</g>
<g opacity="0.4">
<mask id="mask6_62_70" style="mask-type:alpha" maskUnits="userSpaceOnUse" x="5" y="501" width="1680" height="1670">
<rect x="729.102" y="2170.51" width="1048.72" height="1318.61" transform="rotate(-133.6 729.102 2170.51)" fill="url(#paint5_linear_62_70)"/>
</mask>
<g mask="url(#mask6_62_70)">
<path d="M716.715 929.365C871.433 782.03 1116.3 788.016 1263.63 942.733C1410.97 1097.45 1404.98 1342.31 1250.26 1489.65C1095.54 1636.98 1059.16 1432.47 911.825 1277.75C764.49 1123.03 561.998 1076.7 716.715 929.365Z" fill="#4A8FEF"/>
<g filter="url(#filter30_f_62_70)">
<path d="M722.294 924.044C842.059 809.994 1058.59 842.962 1205.92 997.68C1353.26 1152.4 1375.61 1370.28 1255.84 1484.33C1136.08 1598.38 919.548 1565.41 772.213 1410.69C624.878 1255.97 602.529 1038.09 722.294 924.044Z" fill="#4A8FEF"/>
</g>
<g filter="url(#filter31_f_62_70)">
<ellipse cx="977.901" cy="1214.82" rx="386.843" ry="299.45" transform="rotate(-133.6 977.901 1214.82)" fill="#4A8FEF"/>
</g>
<g filter="url(#filter32_f_62_70)">
<ellipse cx="947.189" cy="1244.07" rx="386.843" ry="300.735" transform="rotate(-133.6 947.189 1244.07)" fill="#4A8FEF"/>
</g>
<g filter="url(#filter33_f_62_70)">
<ellipse cx="855.049" cy="1331.81" rx="386.843" ry="299.45" transform="rotate(-133.6 855.049 1331.81)" fill="#4A8FEF"/>
</g>
<g filter="url(#filter34_f_62_70)">
<ellipse cx="730.333" cy="1450.58" rx="325.153" ry="299.45" transform="rotate(-133.6 730.333 1450.58)" fill="#4A8FEF"/>
</g>
</g>
<mask id="mask7_62_70" style="mask-type:alpha" maskUnits="userSpaceOnUse" x="715" y="967" width="812" height="939">
<rect x="1526.71" y="1764.92" width="649.516" height="816.671" transform="rotate(167.489 1526.71 1764.92)" fill="url(#paint6_linear_62_70)"/>
</mask>
<g mask="url(#mask7_62_70)">
<path d="M864.463 1374.56C835.798 1245.39 917.281 1117.43 1046.46 1088.76C1175.64 1060.1 1303.6 1141.58 1332.26 1270.76C1360.93 1399.94 1240.82 1353.83 1111.64 1382.5C982.461 1411.16 893.128 1503.74 864.463 1374.56Z" fill="#4A8FEF"/>
<g filter="url(#filter35_f_62_70)">
<path d="M863.431 1369.9C841.242 1269.91 927.974 1165.61 1057.15 1136.94C1186.33 1108.28 1309.04 1166.1 1331.23 1266.1C1353.42 1366.09 1266.69 1470.39 1137.51 1499.06C1008.33 1527.72 885.62 1469.9 863.431 1369.9Z" fill="#4A8FEF"/>
</g>
<g filter="url(#filter36_f_62_70)">
<ellipse cx="1099.4" cy="1327.32" rx="239.589" ry="185.462" transform="rotate(167.489 1099.4 1327.32)" fill="#4A8FEF"/>
</g>
<g filter="url(#filter37_f_62_70)">
<ellipse cx="1105.09" cy="1352.97" rx="239.589" ry="186.258" transform="rotate(167.489 1105.09 1352.97)" fill="#4A8FEF"/>
</g>
<g filter="url(#filter38_f_62_70)">
<ellipse cx="1122.16" cy="1429.9" rx="239.589" ry="185.462" transform="rotate(167.489 1122.16 1429.9)" fill="#4A8FEF"/>
</g>
<g filter="url(#filter39_f_62_70)">
<ellipse cx="1145.26" cy="1534.02" rx="201.382" ry="185.462" transform="rotate(167.489 1145.26 1534.02)" fill="#4A8FEF"/>
</g>
</g>
</g>
<defs>
<filter id="filter0_f_62_70" x="401.495" y="619.824" width="1043.02" height="815.046" filterUnits="userSpaceOnUse" color-interpolation-filters="sRGB">
<feFlood flood-opacity="0" result="BackgroundImageFix"/>
<feBlend mode="normal" in="SourceGraphic" in2="BackgroundImageFix" result="shape"/>
<feGaussianBlur stdDeviation="4.40646" result="effect1_foregroundBlur_62_70"/>
</filter>
<filter id="filter1_f_62_70" x="381.353" y="577.41" width="1087.09" height="859.111" filterUnits="userSpaceOnUse" color-interpolation-filters="sRGB">
<feFlood flood-opacity="0" result="BackgroundImageFix"/>
<feBlend mode="normal" in="SourceGraphic" in2="BackgroundImageFix" result="shape"/>
<feGaussianBlur stdDeviation="15.4226" result="effect1_foregroundBlur_62_70"/>
</filter>
<filter id="filter2_f_62_70" x="342.482" y="475.588" width="1175.24" height="950.614" filterUnits="userSpaceOnUse" color-interpolation-filters="sRGB">
<feFlood flood-opacity="0" result="BackgroundImageFix"/>
<feBlend mode="normal" in="SourceGraphic" in2="BackgroundImageFix" result="shape"/>
<feGaussianBlur stdDeviation="37.4549" result="effect1_foregroundBlur_62_70"/>
</filter>
<filter id="filter3_f_62_70" x="269.974" y="220.962" width="1351.48" height="1123.5" filterUnits="userSpaceOnUse" color-interpolation-filters="sRGB">
<feFlood flood-opacity="0" result="BackgroundImageFix"/>
<feBlend mode="normal" in="SourceGraphic" in2="BackgroundImageFix" result="shape"/>
<feGaussianBlur stdDeviation="81.5195" result="effect1_foregroundBlur_62_70"/>
</filter>
<filter id="filter4_f_62_70" x="249.013" y="-129.227" width="1435.65" height="1368.58" filterUnits="userSpaceOnUse" color-interpolation-filters="sRGB">
<feFlood flood-opacity="0" result="BackgroundImageFix"/>
<feBlend mode="normal" in="SourceGraphic" in2="BackgroundImageFix" result="shape"/>
<feGaussianBlur stdDeviation="143.21" result="effect1_foregroundBlur_62_70"/>
</filter>
<filter id="filter5_f_62_70" x="745.216" y="591.386" width="861.633" height="1005.29" filterUnits="userSpaceOnUse" color-interpolation-filters="sRGB">
<feFlood flood-opacity="0" result="BackgroundImageFix"/>
<feBlend mode="normal" in="SourceGraphic" in2="BackgroundImageFix" result="shape"/>
<feGaussianBlur stdDeviation="4.40646" result="effect1_foregroundBlur_62_70"/>
</filter>
<filter id="filter6_f_62_70" x="741.619" y="560.444" width="905.698" height="1049.35" filterUnits="userSpaceOnUse" color-interpolation-filters="sRGB">
<feFlood flood-opacity="0" result="BackgroundImageFix"/>
<feBlend mode="normal" in="SourceGraphic" in2="BackgroundImageFix" result="shape"/>
<feGaussianBlur stdDeviation="15.4226" result="effect1_foregroundBlur_62_70"/>
</filter>
<filter id="filter7_f_62_70" x="746.944" y="491.63" width="996.437" height="1138" filterUnits="userSpaceOnUse" color-interpolation-filters="sRGB">
<feFlood flood-opacity="0" result="BackgroundImageFix"/>
<feBlend mode="normal" in="SourceGraphic" in2="BackgroundImageFix" result="shape"/>
<feGaussianBlur stdDeviation="37.4549" result="effect1_foregroundBlur_62_70"/>
</filter>
<filter id="filter8_f_62_70" x="812.211" y="330.281" width="1170.09" height="1313.74" filterUnits="userSpaceOnUse" color-interpolation-filters="sRGB">
<feFlood flood-opacity="0" result="BackgroundImageFix"/>
<feBlend mode="normal" in="SourceGraphic" in2="BackgroundImageFix" result="shape"/>
<feGaussianBlur stdDeviation="81.5195" result="effect1_foregroundBlur_62_70"/>
</filter>
<filter id="filter9_f_62_70" x="912.398" y="175.755" width="1381.44" height="1423.88" filterUnits="userSpaceOnUse" color-interpolation-filters="sRGB">
<feFlood flood-opacity="0" result="BackgroundImageFix"/>
<feBlend mode="normal" in="SourceGraphic" in2="BackgroundImageFix" result="shape"/>
<feGaussianBlur stdDeviation="143.21" result="effect1_foregroundBlur_62_70"/>
</filter>
<filter id="filter10_f_62_70" x="636.698" y="983.608" width="971.756" height="440.461" filterUnits="userSpaceOnUse" color-interpolation-filters="sRGB">
<feFlood flood-opacity="0" result="BackgroundImageFix"/>
<feBlend mode="normal" in="SourceGraphic" in2="BackgroundImageFix" result="shape"/>
<feGaussianBlur stdDeviation="3.08568" result="effect1_foregroundBlur_62_70"/>
</filter>
<filter id="filter11_f_62_70" x="645.952" y="970.52" width="1002.61" height="471.318" filterUnits="userSpaceOnUse" color-interpolation-filters="sRGB">
<feFlood flood-opacity="0" result="BackgroundImageFix"/>
<feBlend mode="normal" in="SourceGraphic" in2="BackgroundImageFix" result="shape"/>
<feGaussianBlur stdDeviation="10.7999" result="effect1_foregroundBlur_62_70"/>
</filter>
<filter id="filter12_f_62_70" x="680.93" y="946.061" width="1068.44" height="533.115" filterUnits="userSpaceOnUse" color-interpolation-filters="sRGB">
<feFlood flood-opacity="0" result="BackgroundImageFix"/>
<feBlend mode="normal" in="SourceGraphic" in2="BackgroundImageFix" result="shape"/>
<feGaussianBlur stdDeviation="26.2283" result="effect1_foregroundBlur_62_70"/>
</filter>
<filter id="filter13_f_62_70" x="824.912" y="903.701" width="1187.75" height="656.459" filterUnits="userSpaceOnUse" color-interpolation-filters="sRGB">
<feFlood flood-opacity="0" result="BackgroundImageFix"/>
<feBlend mode="normal" in="SourceGraphic" in2="BackgroundImageFix" result="shape"/>
<feGaussianBlur stdDeviation="57.0851" result="effect1_foregroundBlur_62_70"/>
</filter>
<filter id="filter14_f_62_70" x="1014.28" y="875.893" width="1360.31" height="764.354" filterUnits="userSpaceOnUse" color-interpolation-filters="sRGB">
<feFlood flood-opacity="0" result="BackgroundImageFix"/>
<feBlend mode="normal" in="SourceGraphic" in2="BackgroundImageFix" result="shape"/>
<feGaussianBlur stdDeviation="100.285" result="effect1_foregroundBlur_62_70"/>
</filter>
<filter id="filter15_f_62_70" x="465.335" y="1125.74" width="1190.83" height="356.574" filterUnits="userSpaceOnUse" color-interpolation-filters="sRGB">
<feFlood flood-opacity="0" result="BackgroundImageFix"/>
<feBlend mode="normal" in="SourceGraphic" in2="BackgroundImageFix" result="shape"/>
<feGaussianBlur stdDeviation="3.08568" result="effect1_foregroundBlur_62_70"/>
</filter>
<filter id="filter16_f_62_70" x="461.98" y="1118.66" width="1221.68" height="387.431" filterUnits="userSpaceOnUse" color-interpolation-filters="sRGB">
<feFlood flood-opacity="0" result="BackgroundImageFix"/>
<feBlend mode="normal" in="SourceGraphic" in2="BackgroundImageFix" result="shape"/>
<feGaussianBlur stdDeviation="10.7999" result="effect1_foregroundBlur_62_70"/>
</filter>
<filter id="filter17_f_62_70" x="463.907" y="1110.11" width="1284.2" height="450.456" filterUnits="userSpaceOnUse" color-interpolation-filters="sRGB">
<feFlood flood-opacity="0" result="BackgroundImageFix"/>
<feBlend mode="normal" in="SourceGraphic" in2="BackgroundImageFix" result="shape"/>
<feGaussianBlur stdDeviation="26.2283" result="effect1_foregroundBlur_62_70"/>
</filter>
<filter id="filter18_f_62_70" x="502.166" y="1117.92" width="1406.83" height="572.572" filterUnits="userSpaceOnUse" color-interpolation-filters="sRGB">
<feFlood flood-opacity="0" result="BackgroundImageFix"/>
<feBlend mode="normal" in="SourceGraphic" in2="BackgroundImageFix" result="shape"/>
<feGaussianBlur stdDeviation="57.0851" result="effect1_foregroundBlur_62_70"/>
</filter>
<filter id="filter19_f_62_70" x="628.504" y="1127.62" width="1423.69" height="739.638" filterUnits="userSpaceOnUse" color-interpolation-filters="sRGB">
<feFlood flood-opacity="0" result="BackgroundImageFix"/>
<feBlend mode="normal" in="SourceGraphic" in2="BackgroundImageFix" result="shape"/>
<feGaussianBlur stdDeviation="100.285" result="effect1_foregroundBlur_62_70"/>
</filter>
<filter id="filter20_f_62_70" x="122.711" y="482.305" width="1079.07" height="909.724" filterUnits="userSpaceOnUse" color-interpolation-filters="sRGB">
<feFlood flood-opacity="0" result="BackgroundImageFix"/>
<feBlend mode="normal" in="SourceGraphic" in2="BackgroundImageFix" result="shape"/>
<feGaussianBlur stdDeviation="5.10459" result="effect1_foregroundBlur_62_70"/>
</filter>
<filter id="filter21_f_62_70" x="88.5821" y="436.768" width="1130.12" height="960.77" filterUnits="userSpaceOnUse" color-interpolation-filters="sRGB">
<feFlood flood-opacity="0" result="BackgroundImageFix"/>
<feBlend mode="normal" in="SourceGraphic" in2="BackgroundImageFix" result="shape"/>
<feGaussianBlur stdDeviation="17.8661" result="effect1_foregroundBlur_62_70"/>
</filter>
<filter id="filter22_f_62_70" x="13.6571" y="329.213" width="1232.66" height="1065.78" filterUnits="userSpaceOnUse" color-interpolation-filters="sRGB">
<feFlood flood-opacity="0" result="BackgroundImageFix"/>
<feBlend mode="normal" in="SourceGraphic" in2="BackgroundImageFix" result="shape"/>
<feGaussianBlur stdDeviation="43.389" result="effect1_foregroundBlur_62_70"/>
</filter>
<filter id="filter23_f_62_70" x="-159.183" y="63.4253" width="1436.39" height="1267.05" filterUnits="userSpaceOnUse" color-interpolation-filters="sRGB">
<feFlood flood-opacity="0" result="BackgroundImageFix"/>
<feBlend mode="normal" in="SourceGraphic" in2="BackgroundImageFix" result="shape"/>
<feGaussianBlur stdDeviation="94.435" result="effect1_foregroundBlur_62_70"/>
</filter>
<filter id="filter24_f_62_70" x="-322.879" y="-287.418" width="1571.65" height="1521.65" filterUnits="userSpaceOnUse" color-interpolation-filters="sRGB">
<feFlood flood-opacity="0" result="BackgroundImageFix"/>
<feBlend mode="normal" in="SourceGraphic" in2="BackgroundImageFix" result="shape"/>
<feGaussianBlur stdDeviation="165.899" result="effect1_foregroundBlur_62_70"/>
</filter>
<filter id="filter25_f_62_70" x="184.411" y="677.212" width="547.796" height="694.931" filterUnits="userSpaceOnUse" color-interpolation-filters="sRGB">
<feFlood flood-opacity="0" result="BackgroundImageFix"/>
<feBlend mode="normal" in="SourceGraphic" in2="BackgroundImageFix" result="shape"/>
<feGaussianBlur stdDeviation="5.10459" result="effect1_foregroundBlur_62_70"/>
</filter>
<filter id="filter26_f_62_70" x="145.521" y="649.847" width="598.842" height="745.977" filterUnits="userSpaceOnUse" color-interpolation-filters="sRGB">
<feFlood flood-opacity="0" result="BackgroundImageFix"/>
<feBlend mode="normal" in="SourceGraphic" in2="BackgroundImageFix" result="shape"/>
<feGaussianBlur stdDeviation="17.8661" result="effect1_foregroundBlur_62_70"/>
</filter>
<filter id="filter27_f_62_70" x="56.6072" y="593.729" width="703.127" height="848.102" filterUnits="userSpaceOnUse" color-interpolation-filters="sRGB">
<feFlood flood-opacity="0" result="BackgroundImageFix"/>
<feBlend mode="normal" in="SourceGraphic" in2="BackgroundImageFix" result="shape"/>
<feGaussianBlur stdDeviation="43.389" result="effect1_foregroundBlur_62_70"/>
</filter>
<filter id="filter28_f_62_70" x="-154.676" y="476.478" width="905.117" height="1052.25" filterUnits="userSpaceOnUse" color-interpolation-filters="sRGB">
<feFlood flood-opacity="0" result="BackgroundImageFix"/>
<feBlend mode="normal" in="SourceGraphic" in2="BackgroundImageFix" result="shape"/>
<feGaussianBlur stdDeviation="94.435" result="effect1_foregroundBlur_62_70"/>
</filter>
<filter id="filter29_f_62_70" x="-445.691" y="366.126" width="1188.58" height="1231.88" filterUnits="userSpaceOnUse" color-interpolation-filters="sRGB">
<feFlood flood-opacity="0" result="BackgroundImageFix"/>
<feBlend mode="normal" in="SourceGraphic" in2="BackgroundImageFix" result="shape"/>
<feGaussianBlur stdDeviation="165.899" result="effect1_foregroundBlur_62_70"/>
</filter>
<filter id="filter30_f_62_70" x="635.054" y="845.925" width="708.026" height="716.521" filterUnits="userSpaceOnUse" color-interpolation-filters="sRGB">
<feFlood flood-opacity="0" result="BackgroundImageFix"/>
<feBlend mode="normal" in="SourceGraphic" in2="BackgroundImageFix" result="shape"/>
<feGaussianBlur stdDeviation="5.10459" result="effect1_foregroundBlur_62_70"/>
</filter>
<filter id="filter31_f_62_70" x="598.365" y="831.039" width="759.072" height="767.567" filterUnits="userSpaceOnUse" color-interpolation-filters="sRGB">
<feFlood flood-opacity="0" result="BackgroundImageFix"/>
<feBlend mode="normal" in="SourceGraphic" in2="BackgroundImageFix" result="shape"/>
<feGaussianBlur stdDeviation="17.8661" result="effect1_foregroundBlur_62_70"/>
</filter>
<filter id="filter32_f_62_70" x="516.02" y="808.712" width="862.339" height="870.711" filterUnits="userSpaceOnUse" color-interpolation-filters="sRGB">
<feFlood flood-opacity="0" result="BackgroundImageFix"/>
<feBlend mode="normal" in="SourceGraphic" in2="BackgroundImageFix" result="shape"/>
<feGaussianBlur stdDeviation="43.389" result="effect1_foregroundBlur_62_70"/>
</filter>
<filter id="filter33_f_62_70" x="322.375" y="794.891" width="1065.35" height="1073.84" filterUnits="userSpaceOnUse" color-interpolation-filters="sRGB">
<feFlood flood-opacity="0" result="BackgroundImageFix"/>
<feBlend mode="normal" in="SourceGraphic" in2="BackgroundImageFix" result="shape"/>
<feGaussianBlur stdDeviation="94.435" result="effect1_foregroundBlur_62_70"/>
</filter>
<filter id="filter34_f_62_70" x="86.5966" y="805.581" width="1287.47" height="1289.99" filterUnits="userSpaceOnUse" color-interpolation-filters="sRGB">
<feFlood flood-opacity="0" result="BackgroundImageFix"/>
<feBlend mode="normal" in="SourceGraphic" in2="BackgroundImageFix" result="shape"/>
<feGaussianBlur stdDeviation="165.899" result="effect1_foregroundBlur_62_70"/>
</filter>
<filter id="filter35_f_62_70" x="849.758" y="1119.39" width="495.145" height="397.217" filterUnits="userSpaceOnUse" color-interpolation-filters="sRGB">
<feFlood flood-opacity="0" result="BackgroundImageFix"/>
<feBlend mode="normal" in="SourceGraphic" in2="BackgroundImageFix" result="shape"/>
<feGaussianBlur stdDeviation="5.10459" result="effect1_foregroundBlur_62_70"/>
</filter>
<filter id="filter36_f_62_70" x="826.301" y="1103.19" width="546.191" height="448.263" filterUnits="userSpaceOnUse" color-interpolation-filters="sRGB">
<feFlood flood-opacity="0" result="BackgroundImageFix"/>
<feBlend mode="normal" in="SourceGraphic" in2="BackgroundImageFix" result="shape"/>
<feGaussianBlur stdDeviation="17.8661" result="effect1_foregroundBlur_62_70"/>
</filter>
<filter id="filter37_f_62_70" x="780.918" y="1077.04" width="648.342" height="551.849" filterUnits="userSpaceOnUse" color-interpolation-filters="sRGB">
<feFlood flood-opacity="0" result="BackgroundImageFix"/>
<feBlend mode="normal" in="SourceGraphic" in2="BackgroundImageFix" result="shape"/>
<feGaussianBlur stdDeviation="43.389" result="effect1_foregroundBlur_62_70"/>
</filter>
<filter id="filter38_f_62_70" x="695.925" y="1052.63" width="852.466" height="754.538" filterUnits="userSpaceOnUse" color-interpolation-filters="sRGB">
<feFlood flood-opacity="0" result="BackgroundImageFix"/>
<feBlend mode="normal" in="SourceGraphic" in2="BackgroundImageFix" result="shape"/>
<feGaussianBlur stdDeviation="94.435" result="effect1_foregroundBlur_62_70"/>
</filter>
<filter id="filter39_f_62_70" x="612.763" y="1015.94" width="1065" height="1036.16" filterUnits="userSpaceOnUse" color-interpolation-filters="sRGB">
<feFlood flood-opacity="0" result="BackgroundImageFix"/>
<feBlend mode="normal" in="SourceGraphic" in2="BackgroundImageFix" result="shape"/>
<feGaussianBlur stdDeviation="165.899" result="effect1_foregroundBlur_62_70"/>
</filter>
<linearGradient id="paint0_linear_62_70" x1="1361.81" y1="1227.68" x2="1361.81" y2="-166.26" gradientUnits="userSpaceOnUse">
<stop stop-color="white"/>
<stop offset="1" stop-color="white" stop-opacity="0"/>
</linearGradient>
<linearGradient id="paint1_linear_62_70" x1="2935.25" y1="2740.31" x2="2935.25" y2="1052.18" gradientUnits="userSpaceOnUse">
<stop stop-color="white"/>
<stop offset="1" stop-color="white" stop-opacity="0"/>
</linearGradient>
<linearGradient id="paint2_linear_62_70" x1="1081.52" y1="998.808" x2="1081.52" y2="7.77057e-06" gradientUnits="userSpaceOnUse">
<stop stop-color="white"/>
<stop offset="1" stop-color="white" stop-opacity="0"/>
</linearGradient>
<linearGradient id="paint3_linear_62_70" x1="597.503" y1="1601.6" x2="597.503" y2="118.153" gradientUnits="userSpaceOnUse">
<stop stop-color="white"/>
<stop offset="1" stop-color="white" stop-opacity="0"/>
</linearGradient>
<linearGradient id="paint4_linear_62_70" x1="328.991" y1="2292.7" x2="328.991" y2="1373.94" gradientUnits="userSpaceOnUse">
<stop stop-color="white"/>
<stop offset="1" stop-color="white" stop-opacity="0"/>
</linearGradient>
<linearGradient id="paint5_linear_62_70" x1="1498.93" y1="3220.51" x2="1498.93" y2="2170.51" gradientUnits="userSpaceOnUse">
<stop stop-color="white"/>
<stop offset="1" stop-color="white" stop-opacity="0"/>
</linearGradient>
<linearGradient id="paint6_linear_62_70" x1="2003.5" y1="2415.23" x2="2003.5" y2="1764.92" gradientUnits="userSpaceOnUse">
<stop stop-color="white"/>
<stop offset="1" stop-color="white" stop-opacity="0"/>
</linearGradient>
</defs>
</svg>
