<svg width="97" height="32" viewBox="0 0 97 32" fill="none" xmlns="http://www.w3.org/2000/svg">
<path d="M3.79854 4.63146C3.73898 4.62473 3.68881 4.61819 3.64803 4.61185C3.60725 4.6055 3.57367 4.59875 3.54728 4.59158C3.40013 4.54219 3.30592 4.47176 3.26464 4.38027C3.22456 4.28439 3.22899 4.14629 3.27795 3.96597C3.37465 3.60972 3.60707 3.43198 3.9752 3.43274C4.29777 3.44475 4.63696 3.48253 4.99277 3.54606C5.34977 3.60519 5.74158 3.69267 6.1682 3.80848C6.73995 3.96369 7.29239 4.17268 7.8255 4.43545C8.36301 4.69942 8.86059 4.99741 9.31824 5.32943C9.78148 5.65823 10.1972 6.01428 10.5654 6.39756C10.9347 6.77644 11.2382 7.16339 11.4757 7.55842C11.7187 7.95024 11.8845 8.33995 11.9729 8.72756C12.0668 9.11196 12.0679 9.47349 11.9759 9.81214C11.8828 10.1552 11.6773 10.4512 11.3594 10.7002C11.0472 10.946 10.6631 11.1345 10.2072 11.2657C9.75127 11.397 9.24692 11.4631 8.69414 11.4642C8.14135 11.4652 7.58348 11.3893 7.02052 11.2365C6.57191 11.1147 6.11485 10.9458 5.64935 10.7297C5.18384 10.5136 4.68149 10.2332 4.14228 9.88852C3.8899 9.73973 3.79892 9.53559 3.86936 9.2761C3.88489 9.21892 3.91241 9.16973 3.95193 9.12851C3.99145 9.0873 4.03038 9.04828 4.0687 9.01146C4.11143 8.97584 4.15136 8.94182 4.18849 8.9094C4.22682 8.87258 4.25196 8.83218 4.26389 8.7882C4.33195 8.53751 4.39158 8.26564 4.4428 7.9726C4.49841 7.68075 4.54303 7.38592 4.57666 7.0881C4.61468 6.79148 4.64032 6.50566 4.65359 6.23065C4.67245 5.95244 4.68075 5.70441 4.67849 5.48658C4.67624 5.26874 4.66044 5.09209 4.6311 4.95663C4.60736 4.81796 4.57129 4.74206 4.52291 4.72893C4.44815 4.70863 4.3534 4.69236 4.23867 4.6801C4.12834 4.66904 3.98163 4.65282 3.79854 4.63146ZM6.36711 5.21539C6.23956 5.18077 6.16385 5.20744 6.13997 5.2954C6.134 5.31739 6.13045 5.35656 6.12932 5.41292C6.12819 5.46928 6.12529 5.55822 6.12064 5.67973C6.11008 5.8752 6.09374 6.08326 6.07161 6.30393C6.04949 6.52459 6.0202 6.77164 5.98375 7.04507C5.9485 7.31411 5.90209 7.61554 5.84452 7.94936C5.79255 8.27998 5.72924 8.65237 5.65458 9.06655C5.64107 9.13372 5.68313 9.21361 5.78077 9.30622C5.8796 9.39444 6.01701 9.48841 6.193 9.58813C6.37018 9.68345 6.57553 9.77933 6.80907 9.87579C7.0482 9.96903 7.29752 10.0509 7.557 10.1213C7.90006 10.2144 8.23846 10.2638 8.57222 10.2694C8.91157 10.2718 9.2185 10.2371 9.49301 10.1652C9.77192 10.0945 10.0062 9.98813 10.1959 9.84601C10.39 9.70509 10.5133 9.53787 10.5658 9.34435C10.653 9.02329 10.6102 8.6764 10.4375 8.30368C10.2692 7.93216 9.99636 7.56296 9.61901 7.19608C9.24286 6.8248 8.77739 6.46941 8.2226 6.12992C7.66901 5.78603 7.05051 5.48119 6.36711 5.21539ZM16.7993 8.274C16.6366 8.22983 16.4817 8.23501 16.3347 8.28954C16.1889 8.33967 16.0511 8.42977 15.9213 8.55982C15.7928 8.68548 15.6718 8.84391 15.5585 9.0351C15.4464 9.22189 15.34 9.43146 15.2391 9.6638C15.1383 9.89615 15.0454 10.1425 14.9606 10.4028C14.8758 10.6631 14.7969 10.9274 14.7241 11.1957C14.6286 11.5475 14.5475 11.8985 14.4807 12.2488C14.4196 12.5958 14.3496 12.9144 14.2708 13.2047C14.2195 13.3938 14.1091 13.5221 13.9397 13.5894C13.7691 13.6611 13.5541 13.6618 13.2946 13.5914C13.2462 13.5782 13.1924 13.5589 13.1333 13.5334C13.0741 13.5079 13.0195 13.4742 12.9695 13.4323C12.9238 13.3915 12.8856 13.341 12.8548 13.2807C12.8271 13.226 12.8218 13.1584 12.8389 13.0781C12.9044 12.6803 12.9547 12.2689 12.9898 11.844C13.0248 11.4191 13.0395 10.991 13.0338 10.5597C13.0337 10.1253 13.0082 9.68862 12.9573 9.2498C12.9109 8.81219 12.8378 8.3768 12.7382 7.94364C12.7209 7.86812 12.7068 7.79818 12.6959 7.73385C12.6895 7.6707 12.6934 7.61274 12.7077 7.55996C12.7256 7.49399 12.7733 7.43138 12.8508 7.37213C12.9339 7.30968 13.0283 7.25741 13.1342 7.21532C13.2445 7.17442 13.3578 7.1485 13.4741 7.13757C13.596 7.12344 13.7075 7.1301 13.8086 7.15756C13.9758 7.20293 14.0915 7.35948 14.1557 7.6272C14.2212 7.89053 14.2402 8.29001 14.2129 8.82564C14.211 8.91957 14.2119 8.98592 14.2155 9.02469C14.2192 9.06346 14.232 9.08582 14.254 9.09179C14.3024 9.10493 14.3534 9.03852 14.4072 8.89256C14.5734 8.48907 14.7609 8.1551 14.9696 7.89065C15.1796 7.6218 15.4053 7.41629 15.647 7.27411C15.8942 7.12873 16.1535 7.04328 16.4249 7.01778C16.7007 6.99348 16.9881 7.02192 17.2872 7.1031C17.4587 7.14967 17.6282 7.21222 17.7958 7.29076C17.9634 7.36931 18.1092 7.45847 18.2332 7.55825C18.3572 7.65803 18.4513 7.76384 18.5154 7.87568C18.5794 7.98752 18.5966 8.09842 18.5667 8.20837C18.5452 8.28753 18.502 8.37732 18.4369 8.47772C18.3775 8.57492 18.3077 8.66693 18.2274 8.75376C18.1484 8.83619 18.0641 8.90304 17.9746 8.95431C17.8908 9.00237 17.8136 9.01685 17.7433 8.99775C17.6641 8.97626 17.5931 8.93337 17.5303 8.8691C17.4686 8.80042 17.401 8.72775 17.3274 8.6511C17.2581 8.57564 17.1811 8.50278 17.0963 8.43253C17.0171 8.35908 16.9181 8.30624 16.7993 8.274ZM22.3819 8.89696C22.6238 8.96262 22.8467 9.06328 23.0507 9.19894C23.2547 9.3346 23.4246 9.49168 23.5603 9.67019C23.696 9.84869 23.7894 10.044 23.8404 10.2562C23.8958 10.4696 23.8931 10.6884 23.8322 10.9127C23.8071 11.0051 23.7606 11.0893 23.6928 11.1653C23.6305 11.2381 23.5552 11.298 23.467 11.3448C23.3799 11.3873 23.2848 11.4158 23.1817 11.4303C23.0842 11.4416 22.987 11.4341 22.8903 11.4079C22.8815 11.4055 22.8721 11.4053 22.8621 11.4073C22.8577 11.4061 22.8511 11.4043 22.8423 11.4019C22.8323 11.404 22.8229 11.4038 22.8141 11.4014L22.6972 11.9363C22.5441 12.57 22.5073 13.0535 22.5868 13.3868C22.6707 13.7212 22.8425 13.9237 23.1019 13.9941C23.1943 14.0192 23.2781 14.0325 23.3532 14.034C23.4328 14.0367 23.5063 14.0354 23.5738 14.0301C23.647 14.0216 23.7145 14.0164 23.7765 14.0143C23.8384 14.0122 23.898 14.0189 23.9552 14.0345C24.0563 14.0619 24.1323 14.1298 24.1832 14.238C24.2385 14.3475 24.2494 14.4638 24.216 14.5869C24.1826 14.7101 24.1008 14.8201 23.9706 14.917C23.8448 15.0151 23.6912 15.0938 23.5098 15.1531C23.3296 15.2081 23.1344 15.2401 22.9242 15.2492C22.7139 15.2582 22.5099 15.2359 22.3119 15.1821C21.9689 15.089 21.7058 14.8665 21.5227 14.5146C21.3409 14.1582 21.2696 13.6903 21.3088 13.1107C21.3063 13.0155 21.2831 12.962 21.2391 12.9501C21.1863 12.9357 21.133 12.9496 21.0791 12.9916C20.4944 13.4232 19.9182 13.7107 19.3504 13.854C18.7838 13.993 18.2608 13.9974 17.7814 13.8673C17.5571 13.8064 17.3637 13.7185 17.2013 13.6035C17.0389 13.4886 16.91 13.3545 16.8147 13.2011C16.725 13.0445 16.6682 12.8709 16.6444 12.6803C16.6262 12.4865 16.6464 12.2818 16.7049 12.0663C16.7872 11.7628 16.9398 11.4619 17.1625 11.1634C17.3895 10.8662 17.6616 10.5859 17.9786 10.3225C18.2957 10.0591 18.6438 9.82067 19.0228 9.60719C19.4063 9.39489 19.7934 9.22136 20.1841 9.0866C20.5793 8.95304 20.9663 8.86685 21.3452 8.82803C21.724 8.78921 22.0696 8.81219 22.3819 8.89696ZM21.5445 11.1205C21.6643 10.9924 21.7661 10.9044 21.85 10.8563C21.9351 10.8039 22.0422 10.7833 22.1713 10.7948C22.2716 10.8079 22.3283 10.7902 22.3415 10.7418C22.351 10.7066 22.348 10.6657 22.3323 10.6189C22.2798 10.4819 22.2187 10.3591 22.149 10.2504C22.0806 10.1374 21.9694 10.06 21.8154 10.0182C21.6483 9.97282 21.4482 9.97045 21.2153 10.0111C20.9823 10.0517 20.736 10.1242 20.4763 10.2284C20.2222 10.3294 19.9637 10.4552 19.7009 10.6058C19.4437 10.7532 19.2066 10.9132 18.9898 11.0857C18.773 11.2582 18.5875 11.4369 18.4334 11.6218C18.2794 11.8066 18.1797 11.9826 18.1343 12.1497C18.0937 12.2993 18.1016 12.4266 18.1581 12.5316C18.219 12.6379 18.3198 12.7101 18.4605 12.7483C18.8212 12.8462 19.2668 12.7617 19.7973 12.4949C20.3277 12.2281 20.9102 11.7699 21.5445 11.1205ZM29.068 11.3778C29.2791 11.4351 29.4745 11.507 29.654 11.5936C29.8348 11.6757 29.9968 11.7574 30.1399 11.8388C30.2843 11.9158 30.4067 11.9868 30.5071 12.0518C30.6087 12.1125 30.6837 12.1493 30.7321 12.1625C30.7717 12.1732 30.8144 12.1636 30.8604 12.1335C30.9075 12.0991 30.964 12.0649 31.0299 12.0308C31.0958 11.9968 31.1781 11.9719 31.2768 11.9562C31.3767 11.9361 31.4993 11.9457 31.6444 11.9851C31.8115 12.0305 31.9315 12.1103 32.0044 12.2245C32.0785 12.3344 32.0982 12.453 32.0636 12.5806C31.6266 14.1903 31.2003 15.5432 30.7847 16.6393C30.3703 17.7309 29.9445 18.5952 29.5071 19.232C29.0698 19.8689 28.6125 20.2925 28.1351 20.5029C27.6577 20.7133 27.1397 20.7427 26.5811 20.5911C26.326 20.5218 26.0755 20.3924 25.8294 20.2028C25.5878 20.0145 25.3771 19.7991 25.1973 19.5567C25.0164 19.3187 24.8804 19.0716 24.7894 18.8155C24.7027 18.5606 24.6863 18.3342 24.74 18.1363C24.7579 18.0703 24.814 18.0029 24.9082 17.934C25.0025 17.8652 25.1115 17.8027 25.2354 17.7466C25.3592 17.6905 25.4839 17.6488 25.6094 17.6214C25.7348 17.5941 25.8371 17.5912 25.9163 17.6127C25.9999 17.6354 26.0613 17.6874 26.1006 17.7689C26.1386 17.8548 26.1681 17.9549 26.189 18.0692C26.2144 18.1847 26.2373 18.309 26.2578 18.442C26.2772 18.5795 26.3127 18.7096 26.3644 18.8322C26.4161 18.9549 26.4902 19.0647 26.5866 19.1617C26.6819 19.2631 26.8153 19.3371 26.9868 19.3837C27.9456 19.644 28.9061 18.3322 29.8684 15.4484C29.9042 15.3165 29.8847 15.2404 29.81 15.2201C29.7484 15.2034 29.6917 15.221 29.6398 15.273C29.0747 15.7194 28.4769 16.0081 27.8463 16.1391C27.2213 16.2669 26.5724 16.2395 25.8995 16.0569C25.5872 15.9721 25.3117 15.8477 25.0729 15.6837C24.8352 15.5153 24.6424 15.3213 24.4942 15.1016C24.3517 14.8788 24.2592 14.6365 24.217 14.3747C24.1759 14.1085 24.1935 13.8347 24.27 13.5532C24.3452 13.2762 24.4676 13.0166 24.6372 12.7746C24.8123 12.5294 25.0201 12.3119 25.2605 12.1222C25.5065 11.9292 25.7801 11.765 26.0813 11.6296C26.3825 11.4941 26.698 11.3932 27.0277 11.3269C27.3585 11.2561 27.6952 11.2248 28.0378 11.2327C28.3859 11.2375 28.7293 11.2859 29.068 11.3778ZM26.4335 14.8985C27.0361 15.0621 27.6394 15.0228 28.2434 14.7806C28.8487 14.5341 29.4279 14.0964 29.9812 13.4674C29.9971 13.4434 30.0091 13.4254 30.0171 13.4134C30.0263 13.397 30.0332 13.38 30.038 13.3624C30.05 13.3184 30.0163 13.2597 29.9371 13.1862C29.8579 13.1128 29.7483 13.0382 29.6083 12.9624C29.4683 12.8866 29.3045 12.8115 29.117 12.7369C28.935 12.6592 28.7473 12.5941 28.5538 12.5416C28.2415 12.4568 27.9259 12.4278 27.607 12.4545C27.288 12.4813 26.9925 12.5522 26.7205 12.6672C26.4484 12.7823 26.2138 12.9334 26.0165 13.1207C25.8193 13.308 25.6879 13.5226 25.6222 13.7645C25.5518 14.024 25.5902 14.2564 25.7375 14.4616C25.8893 14.6681 26.1213 14.8137 26.4335 14.8985ZM36.6196 12.1315C36.7486 11.6566 37.1209 11.5026 37.7367 11.6698C37.8422 11.6984 37.9268 11.7521 37.9905 11.8308C38.0541 11.9094 38.0788 12.0011 38.0645 12.1059C38.0313 12.3849 37.9942 12.6605 37.9534 12.9328C37.9125 13.205 37.8605 13.5097 37.7974 13.8467C37.7398 14.1805 37.6657 14.5665 37.5751 15.0047C37.4901 15.4397 37.3846 15.9588 37.2586 16.5621C37.2419 16.6237 37.2387 16.67 37.2492 16.7012C37.264 16.7335 37.2846 16.7533 37.311 16.7605C37.3506 16.7712 37.4009 16.7424 37.462 16.674C37.7011 16.3847 37.9482 16.1354 38.2033 15.926C38.4597 15.7123 38.7179 15.5439 38.978 15.4209C39.2392 15.2935 39.4989 15.2152 39.7571 15.1862C40.0209 15.1539 40.2759 15.1712 40.5222 15.238C40.8477 15.3264 41.1173 15.4987 41.331 15.7551C41.5447 16.0114 41.698 16.334 41.7908 16.7228C41.8836 17.1116 41.9149 17.5616 41.8847 18.0729C41.8557 18.5798 41.7607 19.1301 41.5995 19.7238C41.5553 19.8865 41.5057 20.0171 41.4506 20.1155C41.4012 20.2107 41.3395 20.2813 41.2656 20.3273C41.1917 20.3734 41.1012 20.3937 40.9941 20.3882C40.8858 20.3871 40.7569 20.3663 40.6073 20.3257C40.4006 20.2696 40.2618 20.1894 40.191 20.0852C40.1245 19.9821 40.1139 19.8471 40.1593 19.6799C40.2715 19.2665 40.3486 18.8695 40.3905 18.489C40.438 18.1052 40.451 17.7616 40.4295 17.4583C40.4079 17.1549 40.3533 16.904 40.2655 16.7054C40.1821 16.5081 40.0657 16.3891 39.9162 16.3485C39.5775 16.2566 39.1642 16.4395 38.6763 16.8974C38.1928 17.3564 37.6181 18.0905 36.9522 19.0997C36.8896 19.1914 36.8273 19.2642 36.7654 19.3182C36.7035 19.3722 36.6364 19.4107 36.5641 19.4336C36.4962 19.4576 36.4186 19.4649 36.3315 19.4554C36.2432 19.4503 36.1418 19.4323 36.0275 19.4012C35.7944 19.3379 35.6392 19.2486 35.5619 19.1332C35.489 19.0189 35.4756 18.8595 35.5218 18.6548C35.7031 17.8823 35.8529 17.1391 35.9712 16.4251C36.0951 15.7079 36.196 15.0577 36.2741 14.4744C36.3577 13.8879 36.4241 13.3912 36.4732 12.9843C36.5278 12.5741 36.5767 12.2899 36.6196 12.1315ZM48.343 20.584C48.5004 20.5087 48.6407 20.4877 48.7639 20.5212C48.8342 20.5403 48.8932 20.5752 48.9409 20.6259C48.9885 20.6766 49.0373 20.7489 49.0874 20.8427C49.1259 20.9618 49.1494 21.0579 49.1579 21.131C49.172 21.201 49.1706 21.2667 49.1539 21.3283C49.1181 21.4602 49.0181 21.5677 48.8539 21.6506C48.5951 21.7692 48.3234 21.8655 48.0389 21.9394C47.7556 22.0088 47.4666 22.0555 47.1721 22.0795C46.8775 22.1034 46.5808 22.1008 46.2817 22.0715C45.9815 22.0467 45.6907 21.9961 45.4092 21.9197C45.053 21.823 44.7312 21.686 44.4441 21.5089C44.1557 21.3362 43.911 21.1328 43.7101 20.8988C43.5136 20.666 43.3634 20.4104 43.2595 20.1319C43.1569 19.8491 43.1103 19.5508 43.12 19.237C43.1138 19.1031 43.0979 19.0138 43.0723 18.969C43.0522 18.9211 43.0048 18.887 42.9301 18.8667C42.7673 18.8225 42.6527 18.7489 42.5863 18.6458C42.5198 18.5428 42.5069 18.4165 42.5474 18.267C42.5642 18.2054 42.5793 18.167 42.5929 18.1518L42.6419 18.0234C42.7069 17.8711 42.7797 17.7681 42.8604 17.7144C42.9454 17.662 43.0561 17.6542 43.1925 17.6912L43.2914 17.7181C43.4762 17.7683 43.6292 17.7177 43.7505 17.5665C43.9692 17.3 44.2182 17.0701 44.4974 16.8767C44.7765 16.6833 45.0719 16.5345 45.3836 16.4302C45.6964 16.3215 46.0155 16.2594 46.3408 16.2438C46.6718 16.225 46.9934 16.258 47.3056 16.3428C47.6311 16.4312 47.9214 16.5619 48.1766 16.7351C48.4374 16.905 48.6507 17.1022 48.8165 17.3267C48.9822 17.5511 49.094 17.7916 49.1519 18.0482C49.2141 18.3059 49.21 18.5645 49.1396 18.824C49.0906 19.0043 49.0107 19.1597 48.8997 19.2901C48.7887 19.4206 48.6518 19.525 48.4888 19.6036C48.327 19.6777 48.142 19.7243 47.9338 19.7433C47.7299 19.7635 47.5063 19.7524 47.2628 19.7099L44.9109 19.3194C44.823 19.2955 44.7444 19.2978 44.6753 19.3263C44.6106 19.3559 44.5681 19.4081 44.5478 19.4829C44.5167 19.5973 44.5287 19.7186 44.5836 19.8468C44.6429 19.9762 44.7316 20.1018 44.8496 20.2236C44.9733 20.3422 45.1209 20.4507 45.2925 20.5492C45.4685 20.6489 45.6554 20.7257 45.8533 20.7794C46.0425 20.8307 46.2408 20.8657 46.4482 20.8842C46.6613 20.8996 46.8741 20.8983 47.0867 20.8805C47.3038 20.8638 47.5178 20.8322 47.7287 20.7856C47.9409 20.7346 48.1457 20.6674 48.343 20.584ZM47.3339 18.4826C47.4035 18.4873 47.469 18.472 47.5305 18.4368C47.5932 18.3971 47.6347 18.3399 47.655 18.2652C47.6729 18.1992 47.6655 18.131 47.6326 18.0607C47.5997 17.9904 47.5475 17.9219 47.4759 17.8553C47.4054 17.7842 47.3188 17.7206 47.216 17.6643C47.1133 17.6081 47.0003 17.5632 46.8771 17.5298C46.6968 17.4809 46.5049 17.4571 46.3015 17.4586C46.098 17.46 45.9074 17.4838 45.7296 17.53C45.553 17.5717 45.402 17.6323 45.2766 17.7116C45.1523 17.7865 45.0765 17.8745 45.049 17.9756C45.0216 18.0768 45.0694 18.1441 45.1926 18.1775C45.2673 18.1978 45.3907 18.2219 45.5626 18.2496C45.7345 18.2774 45.9246 18.3078 46.1329 18.3407C46.3423 18.3692 46.5546 18.3962 46.7697 18.4215C46.9847 18.4468 47.1728 18.4672 47.3339 18.4826ZM54.2317 18.4355C54.069 18.3913 53.9141 18.3965 53.7671 18.451C53.6212 18.5011 53.4835 18.5912 53.3537 18.7213C53.2252 18.847 53.1042 19.0054 52.9909 19.1966C52.8788 19.3834 52.7724 19.5929 52.6715 19.8253C52.5707 20.0576 52.4778 20.3039 52.393 20.5642C52.3082 20.8246 52.2293 21.0888 52.1565 21.3571C52.061 21.709 51.9799 22.06 51.9131 22.4102C51.852 22.7572 51.782 23.0759 51.7032 23.3662C51.6519 23.5553 51.5415 23.6835 51.3721 23.7509C51.2015 23.8226 50.9865 23.8233 50.727 23.7528C50.6786 23.7397 50.6248 23.7204 50.5657 23.6949C50.5065 23.6694 50.4519 23.6356 50.4019 23.5937C50.3562 23.553 50.318 23.5025 50.2872 23.4422C50.2595 23.3875 50.2542 23.3199 50.2713 23.2395C50.3368 22.8418 50.3871 22.4304 50.4222 22.0055C50.4572 21.5806 50.4719 21.1525 50.4662 20.7212C50.4661 20.2867 50.4406 19.8501 50.3897 19.4113C50.3433 18.9737 50.2702 18.5383 50.1706 18.1051C50.1533 18.0296 50.1392 17.9597 50.1283 17.8953C50.1219 17.8322 50.1258 17.7742 50.1401 17.7214C50.158 17.6555 50.2057 17.5928 50.2832 17.5336C50.3663 17.4711 50.4607 17.4189 50.5666 17.3768C50.6769 17.3359 50.7902 17.31 50.9065 17.299C51.0284 17.2849 51.1399 17.2916 51.241 17.319C51.4082 17.3644 51.5239 17.5209 51.5881 17.7887C51.6536 18.052 51.6726 18.4515 51.6453 18.9871C51.6434 19.081 51.6443 19.1474 51.6479 19.1862C51.6516 19.2249 51.6644 19.2473 51.6864 19.2533C51.7348 19.2664 51.7858 19.2 51.8396 19.054C52.0058 18.6505 52.1933 18.3166 52.402 18.0521C52.612 17.7833 52.8377 17.5778 53.0794 17.4356C53.3266 17.2902 53.5859 17.2048 53.8573 17.1793C54.1331 17.1549 54.4205 17.1834 54.7196 17.2646C54.8911 17.3111 55.0606 17.3737 55.2282 17.4522C55.3958 17.5308 55.5416 17.6199 55.6656 17.7197C55.7896 17.8195 55.8837 17.9253 55.9478 18.0371C56.0118 18.149 56.029 18.2599 55.9991 18.3698C55.9776 18.449 55.9344 18.5388 55.8693 18.6392C55.8099 18.7364 55.74 18.8284 55.6598 18.9152C55.5808 18.9977 55.4965 19.0645 55.407 19.1158C55.3232 19.1638 55.246 19.1783 55.1757 19.1592C55.0965 19.1377 55.0255 19.0948 54.9627 19.0306C54.901 18.9619 54.8334 18.8892 54.7598 18.8126C54.6905 18.7371 54.6135 18.6642 54.5287 18.594C54.4495 18.5206 54.3505 18.4677 54.2317 18.4355ZM60.1124 23.7789C60.2698 23.7036 60.4101 23.6827 60.5332 23.7161C60.6036 23.7352 60.6626 23.7701 60.7102 23.8208C60.7578 23.8715 60.8067 23.9438 60.8568 24.0377C60.8953 24.1567 60.9188 24.2528 60.9273 24.326C60.9413 24.3959 60.94 24.4617 60.9233 24.5232C60.8875 24.6552 60.7875 24.7626 60.6233 24.8455C60.3644 24.9642 60.0927 25.0604 59.8082 25.1343C59.5249 25.2038 59.236 25.2505 58.9415 25.2744C58.6469 25.2983 58.3501 25.2957 58.0511 25.2665C57.7509 25.2416 57.4601 25.191 57.1786 25.1146C56.8223 25.0179 56.5006 24.881 56.2134 24.7038C55.925 24.5311 55.6804 24.3278 55.4795 24.0938C55.2829 23.861 55.1327 23.6053 55.0289 23.3269C54.9262 23.044 54.8797 22.7457 54.8893 22.4319C54.8832 22.298 54.8673 22.2087 54.8417 22.164C54.8216 22.116 54.7742 22.0819 54.6994 22.0616C54.5367 22.0174 54.4221 21.9438 54.3556 21.8408C54.2892 21.7377 54.2762 21.6114 54.3168 21.4619C54.3335 21.4003 54.3487 21.3619 54.3622 21.3467L54.4113 21.2184C54.4762 21.066 54.5491 20.963 54.6297 20.9094C54.7148 20.8569 54.8255 20.8492 54.9619 20.8862L55.0608 20.913C55.2455 20.9632 55.3986 20.9126 55.5199 20.7614C55.7386 20.495 55.9876 20.265 56.2667 20.0716C56.5459 19.8783 56.8413 19.7294 57.1529 19.6251C57.4658 19.5164 57.7849 19.4543 58.1102 19.4387C58.4411 19.42 58.7627 19.453 59.075 19.5377C59.4005 19.6261 59.6908 19.7568 59.946 19.93C60.2068 20.1 60.4201 20.2972 60.5858 20.5216C60.7516 20.7461 60.8634 20.9865 60.9212 21.2431C60.9835 21.5008 60.9794 21.7594 60.9089 22.0189C60.86 22.1992 60.78 22.3546 60.6691 22.4851C60.5581 22.6155 60.4211 22.72 60.2582 22.7985C60.0964 22.8726 59.9114 22.9192 59.7031 22.9383C59.4993 22.9585 59.2757 22.9474 59.0322 22.9049L56.6803 22.5143C56.5923 22.4905 56.5138 22.4927 56.4447 22.5212C56.38 22.5509 56.3375 22.6031 56.3172 22.6778C56.2861 22.7922 56.298 22.9135 56.353 23.0417C56.4123 23.1712 56.5009 23.2968 56.619 23.4185C56.7427 23.5371 56.8903 23.6456 57.0619 23.7442C57.2378 23.8439 57.4248 23.9206 57.6227 23.9743C57.8118 24.0257 58.0101 24.0606 58.2176 24.0792C58.4306 24.0945 58.6435 24.0932 58.8561 24.0754C59.0731 24.0588 59.2871 24.0271 59.4981 23.9805C59.7103 23.9295 59.9151 23.8623 60.1124 23.7789ZM59.1033 21.6775C59.1728 21.6822 59.2384 21.667 59.2999 21.6317C59.3626 21.5921 59.4041 21.5349 59.4244 21.4601C59.4423 21.3941 59.4348 21.326 59.402 21.2557C59.3691 21.1854 59.3169 21.1169 59.2452 21.0502C59.1748 20.9791 59.0882 20.9155 58.9854 20.8593C58.8826 20.803 58.7697 20.7582 58.6465 20.7248C58.4662 20.6758 58.2743 20.652 58.0709 20.6535C57.8674 20.6549 57.6768 20.6787 57.499 20.7249C57.3224 20.7667 57.1713 20.8272 57.0459 20.9065C56.9217 20.9814 56.8459 21.0694 56.8184 21.1706C56.7909 21.2717 56.8388 21.339 56.9619 21.3725C57.0367 21.3928 57.16 21.4168 57.3319 21.4446C57.5038 21.4723 57.6939 21.5027 57.9022 21.5356C58.1117 21.5642 58.324 21.5911 58.539 21.6164C58.7541 21.6417 58.9422 21.6621 59.1033 21.6775Z" fill="black"/>
<path d="M90.7166 25.8891C85.5163 24.3851 80.6837 22.9615 75.8209 21.5967C75.4531 21.5162 75.0011 21.757 73.9857 21.9789C76.0243 23.1045 77.5601 24.0939 79.2173 24.8485C83.6115 26.8032 87.9989 28.6127 92.4538 30.45C92.9938 30.6727 93.5034 30.9541 94.1041 31.0594C96.0107 31.4898 97.1338 30.7427 96.8863 29.0032C96.7475 28.1628 96.5107 27.3533 96.1762 26.5746C94.9124 23.6328 93.5508 20.7218 92.1892 17.8109C91.9662 17.2918 91.4497 16.8652 90.852 16.1203C89.1703 19.0576 92.1881 21.2989 91.7174 23.9525C91.1706 23.5846 90.6609 23.3032 90.2491 22.991C74.2688 11.132 55.8691 4.11297 35.5959 0.877631C33.4936 0.508954 31.3375 0.402847 29.2118 0.238065C28.1152 0.141754 26.9716 0.453237 26.996 1.67358C26.9529 2.86609 27.8979 3.25583 29.1901 3.29044C43.6986 3.5787 56.7963 8.3398 69.665 13.8608C76.3845 16.7033 82.6658 20.077 88.5156 24.127C89.2346 24.6371 89.9233 25.206 90.7166 25.8891Z" fill="black"/>
</svg>
