<svg width="440" height="1675" viewBox="0 0 440 1675" fill="none" xmlns="http://www.w3.org/2000/svg">
<g opacity="0.4">
<mask id="mask0_62_1121" style="mask-type:alpha" maskUnits="userSpaceOnUse" x="-60" y="61" width="720" height="1214">
<rect width="649.664" height="1132.4" transform="matrix(0.991726 0.128371 -0.0663913 0.997794 15.375 61.0338)" fill="url(#paint0_linear_62_1121)"/>
</mask>
<g mask="url(#mask0_62_1121)">
<path d="M524.522 858.929C512.34 1042 396.061 1176.64 264.805 1159.65C133.549 1142.66 37.0192 980.475 49.2005 797.402C61.3818 614.33 161.247 726.378 292.503 743.368C423.76 760.358 536.703 675.856 524.522 858.929Z" fill="#4A8FEF"/>
<g filter="url(#filter0_f_62_1121)">
<path d="M524.08 865.539C514.65 1007.25 400.602 1108.36 269.346 1091.37C138.09 1074.38 39.3293 945.726 48.7586 804.012C58.188 662.298 172.236 561.189 303.493 578.18C434.749 595.17 533.509 723.825 524.08 865.539Z" fill="#4A8FEF"/>
</g>
<g filter="url(#filter1_f_62_1121)">
<ellipse cx="239.643" cy="257.163" rx="239.643" ry="257.163" transform="matrix(0.991726 0.128371 -0.0663913 0.997794 66.7109 534.204)" fill="#4A8FEF"/>
</g>
<g filter="url(#filter2_f_62_1121)">
<ellipse cx="239.643" cy="258.267" rx="239.643" ry="258.267" transform="matrix(0.991726 0.128371 -0.0663913 0.997794 69.2031 496.756)" fill="#4A8FEF"/>
</g>
<g filter="url(#filter3_f_62_1121)">
<ellipse cx="239.643" cy="257.163" rx="239.643" ry="257.163" transform="matrix(0.991726 0.128371 -0.0663913 0.997794 76.3848 388.833)" fill="#4A8FEF"/>
</g>
<g filter="url(#filter4_f_62_1121)">
<ellipse cx="201.428" cy="257.163" rx="201.428" ry="257.163" transform="matrix(0.991726 0.128371 -0.0663913 0.997794 124.104 246.17)" fill="#4A8FEF"/>
</g>
</g>
<mask id="mask1_62_1121" style="mask-type:alpha" maskUnits="userSpaceOnUse" x="6" y="154" width="1015" height="1307">
<rect width="841.063" height="911.731" transform="matrix(0.334673 0.966192 -0.803489 0.54143 739.123 154.719)" fill="#2E58FE"/>
</mask>
<g mask="url(#mask1_62_1121)">
<path d="M512.13 1174.87C393.436 1254.85 250.729 1185.48 193.385 1019.93C136.041 854.383 185.775 655.339 304.469 575.357C423.163 495.376 405.934 672.516 463.278 838.067C520.622 1003.62 630.824 1094.89 512.13 1174.87Z" fill="#4A8FEF"/>
<g filter="url(#filter5_f_62_1121)">
<path d="M507.848 1177.76C415.968 1239.67 294.999 1155.66 237.655 990.104C180.311 824.553 208.307 640.158 300.186 578.245C392.066 516.332 513.035 600.347 570.379 765.898C627.723 931.449 599.727 1115.84 507.848 1177.76Z" fill="#4A8FEF"/>
</g>
<g filter="url(#filter6_f_62_1121)">
<ellipse cx="310.245" cy="207.05" rx="310.245" ry="207.05" transform="matrix(0.334673 0.966192 -0.803489 0.54143 475.117 460.365)" fill="#4A8FEF"/>
</g>
<g filter="url(#filter7_f_62_1121)">
<ellipse cx="310.245" cy="207.939" rx="310.245" ry="207.939" transform="matrix(0.334673 0.966192 -0.803489 0.54143 499.393 444.01)" fill="#4A8FEF"/>
</g>
<g filter="url(#filter8_f_62_1121)">
<ellipse cx="310.245" cy="207.05" rx="310.245" ry="207.05" transform="matrix(0.334673 0.966192 -0.803489 0.54143 569.365 396.858)" fill="#4A8FEF"/>
</g>
<g filter="url(#filter9_f_62_1121)">
<ellipse cx="260.771" cy="207.05" rx="260.771" ry="207.05" transform="matrix(0.334673 0.966192 -0.803489 0.54143 681.6 380.188)" fill="#4A8FEF"/>
</g>
</g>
</g>
<g opacity="0.4">
<mask id="mask2_62_1121" style="mask-type:alpha" maskUnits="userSpaceOnUse" x="21" y="721" width="1007" height="498">
<rect width="368.366" height="989.432" transform="matrix(-0.0678371 0.997696 -0.991365 -0.131132 1027.34 850.871)" fill="url(#paint1_linear_62_1121)"/>
</mask>
<g mask="url(#mask2_62_1121)">
<path d="M375.694 1085.51C216.765 1064.49 92.0552 986.751 97.146 911.879C102.237 837.008 235.201 793.354 394.129 814.376C553.058 835.398 463.617 884.809 458.526 959.68C453.435 1034.55 534.622 1106.53 375.694 1085.51Z" fill="#DFE4FF"/>
<g filter="url(#filter10_f_62_1121)">
<path d="M369.954 1084.75C246.929 1068.48 151.325 994.589 156.416 919.718C161.507 844.846 265.365 797.343 388.389 813.616C511.414 829.889 607.018 903.776 601.927 978.647C596.836 1053.52 492.978 1101.02 369.954 1084.75Z" fill="#DFE4FF"/>
</g>
<g filter="url(#filter11_f_62_1121)">
<ellipse cx="135.88" cy="224.696" rx="135.88" ry="224.696" transform="matrix(-0.0678371 0.997696 -0.991365 -0.131132 622.615 844.598)" fill="#DFE4FF"/>
</g>
<g filter="url(#filter12_f_62_1121)">
<ellipse cx="135.88" cy="225.66" rx="135.88" ry="225.66" transform="matrix(-0.0678371 0.997696 -0.991365 -0.131132 655.125 848.899)" fill="#DFE4FF"/>
</g>
<g filter="url(#filter13_f_62_1121)">
<ellipse cx="135.88" cy="224.696" rx="135.88" ry="224.696" transform="matrix(-0.0678371 0.997696 -0.991365 -0.131132 748.814 861.29)" fill="#DFE4FF"/>
</g>
<g filter="url(#filter14_f_62_1121)">
<ellipse cx="114.211" cy="224.696" rx="114.211" ry="224.696" transform="matrix(-0.0678371 0.997696 -0.991365 -0.131132 875.453 899.854)" fill="#DFE4FF"/>
</g>
</g>
<mask id="mask3_62_1121" style="mask-type:alpha" maskUnits="userSpaceOnUse" x="-161" y="800" width="1161" height="566">
<rect width="700.132" height="646.645" transform="matrix(-0.97248 0.144989 -0.741264 -0.715634 999.27 1263.71)" fill="url(#paint2_linear_62_1121)"/>
</mask>
<g mask="url(#mask3_62_1121)">
<path d="M102.05 1054.24C24.3453 979.266 73.8161 901.742 212.546 881.083C351.277 860.425 526.732 904.456 604.437 979.429C682.142 1054.4 527.966 1030.9 389.236 1051.56C250.506 1072.22 179.755 1129.21 102.05 1054.24Z" fill="#4A8FEF"/>
<g filter="url(#filter15_f_62_1121)">
<path d="M99.246 1051.53C39.0957 993.497 102.797 929.703 241.528 909.045C380.258 888.387 541.483 918.687 601.633 976.723C661.783 1034.76 598.082 1098.55 459.351 1119.21C320.621 1139.87 159.396 1109.57 99.246 1051.53Z" fill="#4A8FEF"/>
</g>
<g filter="url(#filter16_f_62_1121)">
<ellipse cx="258.26" cy="146.85" rx="258.26" ry="146.85" transform="matrix(-0.97264 0.144834 -0.741653 -0.715576 716.156 1087.22)" fill="#4A8FEF"/>
</g>
<g filter="url(#filter17_f_62_1121)">
<ellipse cx="258.26" cy="147.48" rx="258.26" ry="147.48" transform="matrix(-0.97264 0.144834 -0.741653 -0.715576 732.045 1102.55)" fill="#4A8FEF"/>
</g>
<g filter="url(#filter18_f_62_1121)">
<ellipse cx="258.26" cy="146.85" rx="258.26" ry="146.85" transform="matrix(-0.97264 0.144834 -0.741653 -0.715576 777.855 1146.75)" fill="#4A8FEF"/>
</g>
<g filter="url(#filter19_f_62_1121)">
<ellipse cx="217.075" cy="146.85" rx="217.075" ry="146.85" transform="matrix(-0.97264 0.144834 -0.741653 -0.715576 800.434 1213.15)" fill="#4A8FEF"/>
</g>
</g>
</g>
<g opacity="0.4">
<mask id="mask4_62_1121" style="mask-type:alpha" maskUnits="userSpaceOnUse" x="-371" y="-134" width="976" height="1489">
<rect width="855.99" height="1024.5" transform="matrix(0.739098 -0.443003 0.33367 1.08297 -370.346 245.401)" fill="url(#paint3_linear_62_1121)"/>
</mask>
<g mask="url(#mask4_62_1121)">
<path d="M396.598 629.953C451.986 809.721 392.402 1018.08 263.515 1095.33C134.628 1172.58 -14.7567 1089.48 -70.1442 909.71C-125.532 729.942 8.68454 763.817 137.572 686.564C266.459 609.311 341.211 450.184 396.598 629.953Z" fill="#4A8FEF"/>
<g filter="url(#filter20_f_62_1121)">
<path d="M398.598 636.437C441.473 775.594 371.746 951.028 242.859 1028.28C113.972 1105.53 -25.2691 1055.35 -68.1438 916.195C-111.019 777.039 -41.2916 601.604 87.5958 524.352C216.483 447.099 355.724 497.281 398.598 636.437Z" fill="#4A8FEF"/>
</g>
<g filter="url(#filter21_f_62_1121)">
<ellipse cx="315.751" cy="232.66" rx="315.751" ry="232.66" transform="matrix(0.739098 -0.443003 0.33367 1.08297 -149.773 651.256)" fill="#4A8FEF"/>
</g>
<g filter="url(#filter22_f_62_1121)">
<ellipse cx="315.751" cy="233.659" rx="315.751" ry="233.659" transform="matrix(0.739098 -0.443003 0.33367 1.08297 -161.1 614.49)" fill="#4A8FEF"/>
</g>
<g filter="url(#filter23_f_62_1121)">
<ellipse cx="315.751" cy="232.66" rx="315.751" ry="232.66" transform="matrix(0.739098 -0.443003 0.33367 1.08297 -193.752 508.512)" fill="#4A8FEF"/>
</g>
<g filter="url(#filter24_f_62_1121)">
<ellipse cx="265.399" cy="232.66" rx="265.399" ry="232.66" transform="matrix(0.739098 -0.443003 0.33367 1.08297 -201.186 341.299)" fill="#4A8FEF"/>
</g>
</g>
<mask id="mask5_62_1121" style="mask-type:alpha" maskUnits="userSpaceOnUse" x="-303" y="470" width="590" height="692">
<rect width="541.301" height="619.459" transform="matrix(0.107386 -1.08866 0.85758 0.164563 -302.725 1059.45)" fill="url(#paint4_linear_62_1121)"/>
</mask>
<g mask="url(#mask5_62_1121)">
<path d="M88.7808 615.071C174.854 631.588 235.031 742.3 223.189 862.353C211.347 982.406 131.971 1066.34 45.8971 1049.82C-40.1764 1033.3 15.6284 944.849 27.4704 824.796C39.3124 704.743 2.70732 598.555 88.7808 615.071Z" fill="#4A8FEF"/>
<g filter="url(#filter25_f_62_1121)">
<path d="M91.8863 615.669C158.515 628.454 202.928 736.141 191.086 856.194C179.244 976.247 115.631 1063.2 49.0026 1050.42C-17.6257 1037.63 -62.0388 929.946 -50.1968 809.893C-38.3548 689.841 25.258 602.883 91.8863 615.669Z" fill="#4A8FEF"/>
</g>
<g filter="url(#filter26_f_62_1121)">
<ellipse cx="199.671" cy="140.676" rx="199.671" ry="140.676" transform="matrix(0.107386 -1.08866 0.85758 0.164564 -77.8496 1026.07)" fill="#4A8FEF"/>
</g>
<g filter="url(#filter27_f_62_1121)">
<ellipse cx="199.671" cy="141.28" rx="199.671" ry="141.28" transform="matrix(0.107386 -1.08866 0.85758 0.164564 -95.457 1022.7)" fill="#4A8FEF"/>
</g>
<g filter="url(#filter28_f_62_1121)">
<ellipse cx="199.671" cy="140.676" rx="199.671" ry="140.676" transform="matrix(0.107386 -1.08866 0.85758 0.164564 -146.197 1012.96)" fill="#4A8FEF"/>
</g>
<g filter="url(#filter29_f_62_1121)">
<ellipse cx="167.83" cy="140.676" rx="167.83" ry="140.676" transform="matrix(0.107386 -1.08866 0.85758 0.164564 -212.158 964.982)" fill="#4A8FEF"/>
</g>
</g>
</g>
<g opacity="0.4">
<mask id="mask6_62_1121" style="mask-type:alpha" maskUnits="userSpaceOnUse" x="-140" y="494" width="781" height="1082">
<rect width="560.188" height="781.081" transform="matrix(-0.600016 -0.878822 0.56819 -0.754677 196.301 1575.81)" fill="url(#paint5_linear_62_1121)"/>
</mask>
<g mask="url(#mask6_62_1121)">
<path d="M190.543 771.259C262.45 675.751 376.253 679.631 444.728 779.925C513.204 880.218 510.422 1038.95 438.515 1134.45C366.608 1229.96 349.698 1097.39 281.222 997.095C212.747 896.802 118.636 866.767 190.543 771.259Z" fill="#4A8FEF"/>
<g filter="url(#filter30_f_62_1121)">
<path d="M193.135 767.809C248.797 693.878 349.431 715.249 417.907 815.543C486.382 915.837 496.77 1057.07 441.107 1131.01C385.445 1204.94 284.812 1183.57 216.336 1083.27C147.86 982.978 137.473 841.741 193.135 767.809Z" fill="#4A8FEF"/>
</g>
<g filter="url(#filter31_f_62_1121)">
<ellipse cx="206.638" cy="177.38" rx="206.638" ry="177.38" transform="matrix(-0.600016 -0.878822 0.56819 -0.754677 335.133 1271.77)" fill="#4A8FEF"/>
</g>
<g filter="url(#filter32_f_62_1121)">
<ellipse cx="206.638" cy="178.141" rx="206.638" ry="178.141" transform="matrix(-0.600016 -0.878822 0.56819 -0.754677 320.426 1291.3)" fill="#4A8FEF"/>
</g>
<g filter="url(#filter33_f_62_1121)">
<ellipse cx="206.638" cy="177.38" rx="206.638" ry="177.38" transform="matrix(-0.600016 -0.878822 0.56819 -0.754677 278.035 1347.6)" fill="#4A8FEF"/>
</g>
<g filter="url(#filter34_f_62_1121)">
<ellipse cx="173.686" cy="177.38" rx="173.686" ry="177.38" transform="matrix(-0.600016 -0.878822 0.56819 -0.754677 200.301 1395.63)" fill="#4A8FEF"/>
</g>
</g>
<mask id="mask7_62_1121" style="mask-type:alpha" maskUnits="userSpaceOnUse" x="190" y="796" width="378" height="609">
<rect width="328.417" height="503.794" transform="matrix(-0.897341 0.277728 -0.16321 -1.02587 567.002 1312.89)" fill="url(#paint6_linear_62_1121)"/>
</mask>
<g mask="url(#mask7_62_1121)">
<path d="M259.215 1059.85C245.893 976.115 283.763 893.168 343.801 874.586C403.838 856.004 463.308 908.824 476.631 992.563C489.953 1076.3 434.131 1046.41 374.094 1065C314.056 1083.58 272.538 1143.59 259.215 1059.85Z" fill="#4A8FEF"/>
<g filter="url(#filter35_f_62_1121)">
<path d="M258.734 1056.83C248.421 992.01 288.731 924.399 348.769 905.817C408.806 887.235 465.837 924.719 476.149 989.54C486.462 1054.36 446.152 1121.97 386.114 1140.55C326.077 1159.14 269.047 1121.65 258.734 1056.83Z" fill="#4A8FEF"/>
</g>
<g filter="url(#filter36_f_62_1121)">
<ellipse cx="121.144" cy="114.409" rx="121.144" ry="114.409" transform="matrix(-0.897341 0.277728 -0.16321 -1.02587 495.783 1112.95)" fill="#4A8FEF"/>
</g>
<g filter="url(#filter37_f_62_1121)">
<ellipse cx="121.144" cy="114.9" rx="121.144" ry="114.9" transform="matrix(-0.897341 0.277728 -0.16321 -1.02587 498.51 1130.08)" fill="#4A8FEF"/>
</g>
<g filter="url(#filter38_f_62_1121)">
<ellipse cx="121.144" cy="114.409" rx="121.144" ry="114.409" transform="matrix(-0.897341 0.277728 -0.16321 -1.02587 506.361 1179.45)" fill="#4A8FEF"/>
</g>
<g filter="url(#filter39_f_62_1121)">
<ellipse cx="101.825" cy="114.409" rx="101.825" ry="114.409" transform="matrix(-0.897341 0.277728 -0.16321 -1.02587 499.765 1252.31)" fill="#4A8FEF"/>
</g>
</g>
</g>
<defs>
<filter id="filter0_f_62_1121" x="40.9395" y="569.12" width="490.959" height="531.31" filterUnits="userSpaceOnUse" color-interpolation-filters="sRGB">
<feFlood flood-opacity="0" result="BackgroundImageFix"/>
<feBlend mode="normal" in="SourceGraphic" in2="BackgroundImageFix" result="shape"/>
<feGaussianBlur stdDeviation="3.59814" result="effect1_foregroundBlur_62_1121"/>
</filter>
<filter id="filter1_f_62_1121" x="23.8277" y="537.917" width="526.941" height="567.292" filterUnits="userSpaceOnUse" color-interpolation-filters="sRGB">
<feFlood flood-opacity="0" result="BackgroundImageFix"/>
<feBlend mode="normal" in="SourceGraphic" in2="BackgroundImageFix" result="shape"/>
<feGaussianBlur stdDeviation="12.5935" result="effect1_foregroundBlur_62_1121"/>
</filter>
<filter id="filter2_f_62_1121" x="-9.74011" y="464.495" width="598.914" height="641.441" filterUnits="userSpaceOnUse" color-interpolation-filters="sRGB">
<feFlood flood-opacity="0" result="BackgroundImageFix"/>
<feBlend mode="normal" in="SourceGraphic" in2="BackgroundImageFix" result="shape"/>
<feGaussianBlur stdDeviation="30.5842" result="effect1_foregroundBlur_62_1121"/>
</filter>
<filter id="filter3_f_62_1121" x="-74.4426" y="284.603" width="742.829" height="783.18" filterUnits="userSpaceOnUse" color-interpolation-filters="sRGB">
<feFlood flood-opacity="0" result="BackgroundImageFix"/>
<feBlend mode="normal" in="SourceGraphic" in2="BackgroundImageFix" result="shape"/>
<feGaussianBlur stdDeviation="66.5655" result="effect1_foregroundBlur_62_1121"/>
</filter>
<filter id="filter4_f_62_1121" x="-127.589" y="36.8293" width="868.76" height="983.587" filterUnits="userSpaceOnUse" color-interpolation-filters="sRGB">
<feFlood flood-opacity="0" result="BackgroundImageFix"/>
<feBlend mode="normal" in="SourceGraphic" in2="BackgroundImageFix" result="shape"/>
<feGaussianBlur stdDeviation="116.939" result="effect1_foregroundBlur_62_1121"/>
</filter>
<filter id="filter5_f_62_1121" x="200.689" y="550.685" width="406.656" height="654.632" filterUnits="userSpaceOnUse" color-interpolation-filters="sRGB">
<feFlood flood-opacity="0" result="BackgroundImageFix"/>
<feBlend mode="normal" in="SourceGraphic" in2="BackgroundImageFix" result="shape"/>
<feGaussianBlur stdDeviation="3.59814" result="effect1_foregroundBlur_62_1121"/>
</filter>
<filter id="filter6_f_62_1121" x="191.267" y="526.918" width="442.637" height="690.613" filterUnits="userSpaceOnUse" color-interpolation-filters="sRGB">
<feFlood flood-opacity="0" result="BackgroundImageFix"/>
<feBlend mode="normal" in="SourceGraphic" in2="BackgroundImageFix" result="shape"/>
<feGaussianBlur stdDeviation="12.5935" result="effect1_foregroundBlur_62_1121"/>
</filter>
<filter id="filter7_f_62_1121" x="178.241" y="474.894" width="515.812" height="762.914" filterUnits="userSpaceOnUse" color-interpolation-filters="sRGB">
<feFlood flood-opacity="0" result="BackgroundImageFix"/>
<feBlend mode="normal" in="SourceGraphic" in2="BackgroundImageFix" result="shape"/>
<feGaussianBlur stdDeviation="30.5842" result="effect1_foregroundBlur_62_1121"/>
</filter>
<filter id="filter8_f_62_1121" x="177.571" y="355.467" width="658.525" height="906.501" filterUnits="userSpaceOnUse" color-interpolation-filters="sRGB">
<feFlood flood-opacity="0" result="BackgroundImageFix"/>
<feBlend mode="normal" in="SourceGraphic" in2="BackgroundImageFix" result="shape"/>
<feGaussianBlur stdDeviation="66.5655" result="effect1_foregroundBlur_62_1121"/>
</filter>
<filter id="filter9_f_62_1121" x="180.729" y="234.53" width="843.563" height="1019.43" filterUnits="userSpaceOnUse" color-interpolation-filters="sRGB">
<feFlood flood-opacity="0" result="BackgroundImageFix"/>
<feBlend mode="normal" in="SourceGraphic" in2="BackgroundImageFix" result="shape"/>
<feGaussianBlur stdDeviation="116.939" result="effect1_foregroundBlur_62_1121"/>
</filter>
<filter id="filter10_f_62_1121" x="151.183" y="805.382" width="455.978" height="287.601" filterUnits="userSpaceOnUse" color-interpolation-filters="sRGB">
<feFlood flood-opacity="0" result="BackgroundImageFix"/>
<feBlend mode="normal" in="SourceGraphic" in2="BackgroundImageFix" result="shape"/>
<feGaussianBlur stdDeviation="2.51965" result="effect1_foregroundBlur_62_1121"/>
</filter>
<filter id="filter11_f_62_1121" x="150.055" y="794.301" width="481.174" height="312.797" filterUnits="userSpaceOnUse" color-interpolation-filters="sRGB">
<feFlood flood-opacity="0" result="BackgroundImageFix"/>
<feBlend mode="normal" in="SourceGraphic" in2="BackgroundImageFix" result="shape"/>
<feGaussianBlur stdDeviation="8.81876" result="effect1_foregroundBlur_62_1121"/>
</filter>
<filter id="filter12_f_62_1121" x="155.457" y="773.252" width="533.477" height="363.244" filterUnits="userSpaceOnUse" color-interpolation-filters="sRGB">
<feFlood flood-opacity="0" result="BackgroundImageFix"/>
<feBlend mode="normal" in="SourceGraphic" in2="BackgroundImageFix" result="shape"/>
<feGaussianBlur stdDeviation="21.417" result="effect1_foregroundBlur_62_1121"/>
</filter>
<filter id="filter13_f_62_1121" x="200.665" y="735.405" width="632.353" height="463.976" filterUnits="userSpaceOnUse" color-interpolation-filters="sRGB">
<feFlood flood-opacity="0" result="BackgroundImageFix"/>
<feBlend mode="normal" in="SourceGraphic" in2="BackgroundImageFix" result="shape"/>
<feGaussianBlur stdDeviation="46.6134" result="effect1_foregroundBlur_62_1121"/>
</filter>
<filter id="filter14_f_62_1121" x="258.28" y="702.836" width="773.339" height="563.003" filterUnits="userSpaceOnUse" color-interpolation-filters="sRGB">
<feFlood flood-opacity="0" result="BackgroundImageFix"/>
<feBlend mode="normal" in="SourceGraphic" in2="BackgroundImageFix" result="shape"/>
<feGaussianBlur stdDeviation="81.8885" result="effect1_foregroundBlur_62_1121"/>
</filter>
<filter id="filter15_f_62_1121" x="71.5425" y="897.517" width="557.794" height="233.222" filterUnits="userSpaceOnUse" color-interpolation-filters="sRGB">
<feFlood flood-opacity="0" result="BackgroundImageFix"/>
<feBlend mode="normal" in="SourceGraphic" in2="BackgroundImageFix" result="shape"/>
<feGaussianBlur stdDeviation="2.51965" result="effect1_foregroundBlur_62_1121"/>
</filter>
<filter id="filter16_f_62_1121" x="64.5556" y="890.331" width="582.991" height="258.418" filterUnits="userSpaceOnUse" color-interpolation-filters="sRGB">
<feFlood flood-opacity="0" result="BackgroundImageFix"/>
<feBlend mode="normal" in="SourceGraphic" in2="BackgroundImageFix" result="shape"/>
<feGaussianBlur stdDeviation="8.81876" result="effect1_foregroundBlur_62_1121"/>
</filter>
<filter id="filter17_f_62_1121" x="54.5942" y="879.592" width="633.756" height="309.661" filterUnits="userSpaceOnUse" color-interpolation-filters="sRGB">
<feFlood flood-opacity="0" result="BackgroundImageFix"/>
<feBlend mode="normal" in="SourceGraphic" in2="BackgroundImageFix" result="shape"/>
<feGaussianBlur stdDeviation="21.417" result="effect1_foregroundBlur_62_1121"/>
</filter>
<filter id="filter18_f_62_1121" x="50.6655" y="874.273" width="734.169" height="409.597" filterUnits="userSpaceOnUse" color-interpolation-filters="sRGB">
<feFlood flood-opacity="0" result="BackgroundImageFix"/>
<feBlend mode="normal" in="SourceGraphic" in2="BackgroundImageFix" result="shape"/>
<feGaussianBlur stdDeviation="46.6134" result="effect1_foregroundBlur_62_1121"/>
</filter>
<filter id="filter19_f_62_1121" x="78.9874" y="866.014" width="802.796" height="546.982" filterUnits="userSpaceOnUse" color-interpolation-filters="sRGB">
<feFlood flood-opacity="0" result="BackgroundImageFix"/>
<feBlend mode="normal" in="SourceGraphic" in2="BackgroundImageFix" result="shape"/>
<feGaussianBlur stdDeviation="81.8885" result="effect1_foregroundBlur_62_1121"/>
</filter>
<filter id="filter20_f_62_1121" x="-89.1204" y="479.739" width="508.696" height="593.154" filterUnits="userSpaceOnUse" color-interpolation-filters="sRGB">
<feFlood flood-opacity="0" result="BackgroundImageFix"/>
<feBlend mode="normal" in="SourceGraphic" in2="BackgroundImageFix" result="shape"/>
<feGaussianBlur stdDeviation="4.16821" result="effect1_foregroundBlur_62_1121"/>
</filter>
<filter id="filter21_f_62_1121" x="-113.959" y="445.924" width="550.378" height="634.836" filterUnits="userSpaceOnUse" color-interpolation-filters="sRGB">
<feFlood flood-opacity="0" result="BackgroundImageFix"/>
<feBlend mode="normal" in="SourceGraphic" in2="BackgroundImageFix" result="shape"/>
<feGaussianBlur stdDeviation="14.5887" result="effect1_foregroundBlur_62_1121"/>
</filter>
<filter id="filter22_f_62_1121" x="-166.74" y="367.611" width="633.952" height="720.093" filterUnits="userSpaceOnUse" color-interpolation-filters="sRGB">
<feFlood flood-opacity="0" result="BackgroundImageFix"/>
<feBlend mode="normal" in="SourceGraphic" in2="BackgroundImageFix" result="shape"/>
<feGaussianBlur stdDeviation="35.4298" result="effect1_foregroundBlur_62_1121"/>
</filter>
<filter id="filter23_f_62_1121" x="-282.984" y="178.133" width="800.47" height="884.928" filterUnits="userSpaceOnUse" color-interpolation-filters="sRGB">
<feFlood flood-opacity="0" result="BackgroundImageFix"/>
<feBlend mode="normal" in="SourceGraphic" in2="BackgroundImageFix" result="shape"/>
<feGaussianBlur stdDeviation="77.1118" result="effect1_foregroundBlur_62_1121"/>
</filter>
<filter id="filter24_f_62_1121" x="-409.347" y="-73.3548" width="963.898" height="1098.09" filterUnits="userSpaceOnUse" color-interpolation-filters="sRGB">
<feFlood flood-opacity="0" result="BackgroundImageFix"/>
<feBlend mode="normal" in="SourceGraphic" in2="BackgroundImageFix" result="shape"/>
<feGaussianBlur stdDeviation="135.467" result="effect1_foregroundBlur_62_1121"/>
</filter>
<filter id="filter25_f_62_1121" x="-60.4446" y="606.085" width="261.778" height="453.917" filterUnits="userSpaceOnUse" color-interpolation-filters="sRGB">
<feFlood flood-opacity="0" result="BackgroundImageFix"/>
<feBlend mode="normal" in="SourceGraphic" in2="BackgroundImageFix" result="shape"/>
<feGaussianBlur stdDeviation="4.16821" result="effect1_foregroundBlur_62_1121"/>
</filter>
<filter id="filter26_f_62_1121" x="-87.4965" y="584.05" width="303.46" height="495.599" filterUnits="userSpaceOnUse" color-interpolation-filters="sRGB">
<feFlood flood-opacity="0" result="BackgroundImageFix"/>
<feBlend mode="normal" in="SourceGraphic" in2="BackgroundImageFix" result="shape"/>
<feGaussianBlur stdDeviation="14.5887" result="effect1_foregroundBlur_62_1121"/>
</filter>
<filter id="filter27_f_62_1121" x="-146.778" y="539.08" width="387.844" height="578.985" filterUnits="userSpaceOnUse" color-interpolation-filters="sRGB">
<feFlood flood-opacity="0" result="BackgroundImageFix"/>
<feBlend mode="normal" in="SourceGraphic" in2="BackgroundImageFix" result="shape"/>
<feGaussianBlur stdDeviation="35.4298" result="effect1_foregroundBlur_62_1121"/>
</filter>
<filter id="filter28_f_62_1121" x="-280.89" y="445.889" width="553.553" height="745.692" filterUnits="userSpaceOnUse" color-interpolation-filters="sRGB">
<feFlood flood-opacity="0" result="BackgroundImageFix"/>
<feBlend mode="normal" in="SourceGraphic" in2="BackgroundImageFix" result="shape"/>
<feGaussianBlur stdDeviation="77.1118" result="effect1_foregroundBlur_62_1121"/>
</filter>
<filter id="filter29_f_62_1121" x="-466.424" y="350.297" width="785.86" height="910.249" filterUnits="userSpaceOnUse" color-interpolation-filters="sRGB">
<feFlood flood-opacity="0" result="BackgroundImageFix"/>
<feBlend mode="normal" in="SourceGraphic" in2="BackgroundImageFix" result="shape"/>
<feGaussianBlur stdDeviation="135.467" result="effect1_foregroundBlur_62_1121"/>
</filter>
<filter id="filter30_f_62_1121" x="148.998" y="715.451" width="336.247" height="467.912" filterUnits="userSpaceOnUse" color-interpolation-filters="sRGB">
<feFlood flood-opacity="0" result="BackgroundImageFix"/>
<feBlend mode="normal" in="SourceGraphic" in2="BackgroundImageFix" result="shape"/>
<feGaussianBlur stdDeviation="4.16821" result="effect1_foregroundBlur_62_1121"/>
</filter>
<filter id="filter31_f_62_1121" x="122.967" y="701.505" width="377.929" height="509.594" filterUnits="userSpaceOnUse" color-interpolation-filters="sRGB">
<feFlood flood-opacity="0" result="BackgroundImageFix"/>
<feBlend mode="normal" in="SourceGraphic" in2="BackgroundImageFix" result="shape"/>
<feGaussianBlur stdDeviation="14.5887" result="effect1_foregroundBlur_62_1121"/>
</filter>
<filter id="filter32_f_62_1121" x="66.7379" y="678.44" width="461.839" height="593.641" filterUnits="userSpaceOnUse" color-interpolation-filters="sRGB">
<feFlood flood-opacity="0" result="BackgroundImageFix"/>
<feBlend mode="normal" in="SourceGraphic" in2="BackgroundImageFix" result="shape"/>
<feGaussianBlur stdDeviation="35.4298" result="effect1_foregroundBlur_62_1121"/>
</filter>
<filter id="filter33_f_62_1121" x="-59.1766" y="652.296" width="628.022" height="759.687" filterUnits="userSpaceOnUse" color-interpolation-filters="sRGB">
<feFlood flood-opacity="0" result="BackgroundImageFix"/>
<feBlend mode="normal" in="SourceGraphic" in2="BackgroundImageFix" result="shape"/>
<feGaussianBlur stdDeviation="77.1118" result="effect1_foregroundBlur_62_1121"/>
</filter>
<filter id="filter34_f_62_1121" x="-219.039" y="635.168" width="831.821" height="947.918" filterUnits="userSpaceOnUse" color-interpolation-filters="sRGB">
<feFlood flood-opacity="0" result="BackgroundImageFix"/>
<feBlend mode="normal" in="SourceGraphic" in2="BackgroundImageFix" result="shape"/>
<feGaussianBlur stdDeviation="135.467" result="effect1_foregroundBlur_62_1121"/>
</filter>
<filter id="filter35_f_62_1121" x="248.788" y="892.722" width="237.308" height="260.928" filterUnits="userSpaceOnUse" color-interpolation-filters="sRGB">
<feFlood flood-opacity="0" result="BackgroundImageFix"/>
<feBlend mode="normal" in="SourceGraphic" in2="BackgroundImageFix" result="shape"/>
<feGaussianBlur stdDeviation="4.16821" result="effect1_foregroundBlur_62_1121"/>
</filter>
<filter id="filter36_f_62_1121" x="228.908" y="877.924" width="278.99" height="302.61" filterUnits="userSpaceOnUse" color-interpolation-filters="sRGB">
<feFlood flood-opacity="0" result="BackgroundImageFix"/>
<feBlend mode="normal" in="SourceGraphic" in2="BackgroundImageFix" result="shape"/>
<feGaussianBlur stdDeviation="14.5887" result="effect1_foregroundBlur_62_1121"/>
</filter>
<filter id="filter37_f_62_1121" x="189.858" y="852.383" width="362.381" height="386.942" filterUnits="userSpaceOnUse" color-interpolation-filters="sRGB">
<feFlood flood-opacity="0" result="BackgroundImageFix"/>
<feBlend mode="normal" in="SourceGraphic" in2="BackgroundImageFix" result="shape"/>
<feGaussianBlur stdDeviation="35.4298" result="effect1_foregroundBlur_62_1121"/>
</filter>
<filter id="filter38_f_62_1121" x="114.44" y="819.371" width="529.082" height="552.702" filterUnits="userSpaceOnUse" color-interpolation-filters="sRGB">
<feFlood flood-opacity="0" result="BackgroundImageFix"/>
<feBlend mode="normal" in="SourceGraphic" in2="BackgroundImageFix" result="shape"/>
<feGaussianBlur stdDeviation="77.1118" result="effect1_foregroundBlur_62_1121"/>
</filter>
<filter id="filter39_f_62_1121" x="25.5079" y="771.532" width="728.425" height="783.378" filterUnits="userSpaceOnUse" color-interpolation-filters="sRGB">
<feFlood flood-opacity="0" result="BackgroundImageFix"/>
<feBlend mode="normal" in="SourceGraphic" in2="BackgroundImageFix" result="shape"/>
<feGaussianBlur stdDeviation="135.467" result="effect1_foregroundBlur_62_1121"/>
</filter>
<linearGradient id="paint0_linear_62_1121" x1="476.898" y1="901.726" x2="476.898" y2="7.01528e-06" gradientUnits="userSpaceOnUse">
<stop stop-color="white"/>
<stop offset="1" stop-color="white" stop-opacity="0"/>
</linearGradient>
<linearGradient id="paint1_linear_62_1121" x1="270.406" y1="787.881" x2="270.406" y2="6.12959e-06" gradientUnits="userSpaceOnUse">
<stop stop-color="white"/>
<stop offset="1" stop-color="white" stop-opacity="0"/>
</linearGradient>
<linearGradient id="paint2_linear_62_1121" x1="513.945" y1="514.921" x2="513.945" y2="4.006e-06" gradientUnits="userSpaceOnUse">
<stop stop-color="white"/>
<stop offset="1" stop-color="white" stop-opacity="0"/>
</linearGradient>
<linearGradient id="paint3_linear_62_1121" x1="628.356" y1="815.808" x2="628.356" y2="6.34685e-06" gradientUnits="userSpaceOnUse">
<stop stop-color="white"/>
<stop offset="1" stop-color="white" stop-opacity="0"/>
</linearGradient>
<linearGradient id="paint4_linear_62_1121" x1="397.352" y1="493.273" x2="397.352" y2="3.83759e-06" gradientUnits="userSpaceOnUse">
<stop stop-color="white"/>
<stop offset="1" stop-color="white" stop-opacity="0"/>
</linearGradient>
<linearGradient id="paint5_linear_62_1121" x1="411.217" y1="621.972" x2="411.217" y2="4.83884e-06" gradientUnits="userSpaceOnUse">
<stop stop-color="white"/>
<stop offset="1" stop-color="white" stop-opacity="0"/>
</linearGradient>
<linearGradient id="paint6_linear_62_1121" x1="241.081" y1="401.169" x2="241.081" y2="3.12103e-06" gradientUnits="userSpaceOnUse">
<stop stop-color="white"/>
<stop offset="1" stop-color="white" stop-opacity="0"/>
</linearGradient>
</defs>
</svg>
