<svg width="26" height="26" viewBox="0 0 26 26" fill="none" xmlns="http://www.w3.org/2000/svg">
<path d="M10.6562 25.915C10.4093 25.9163 10.1679 25.8421 9.96426 25.7025C9.76061 25.5629 9.60442 25.3645 9.51655 25.1338L7.57123 20.0752C7.53183 19.9732 7.47156 19.8806 7.39428 19.8034C7.31701 19.7261 7.22443 19.6658 7.1225 19.6264L2.06242 17.6796C1.83192 17.5912 1.63366 17.4349 1.49382 17.2314C1.35397 17.028 1.27911 16.7869 1.27911 16.54C1.27911 16.2931 1.35397 16.052 1.49382 15.8485C1.63366 15.6451 1.83192 15.4888 2.06242 15.4003L7.12103 13.455C7.22297 13.4156 7.31554 13.3553 7.39282 13.2781C7.47009 13.2008 7.53037 13.1082 7.56977 13.0063L9.51655 7.94619C9.60502 7.71569 9.7613 7.51744 9.96476 7.37759C10.1682 7.23774 10.4093 7.16288 10.6562 7.16288C10.9031 7.16288 11.1442 7.23774 11.3477 7.37759C11.5511 7.51744 11.7074 7.71569 11.7959 7.94619L13.7412 13.0048C13.7806 13.1067 13.8409 13.1993 13.9181 13.2766C13.9954 13.3539 14.088 13.4141 14.1899 13.4535L19.2192 15.3886C19.4591 15.4775 19.6658 15.6382 19.8111 15.8488C19.9564 16.0593 20.0332 16.3095 20.0312 16.5654C20.0275 16.808 19.9511 17.0439 19.8118 17.2425C19.6725 17.4412 19.4768 17.5934 19.25 17.6796L14.1914 19.625C14.0894 19.6644 13.9969 19.7246 13.9196 19.8019C13.8423 19.8792 13.782 19.9718 13.7426 20.0737L11.7959 25.1338C11.708 25.3645 11.5518 25.5629 11.3482 25.7025C11.1445 25.8421 10.9031 25.9163 10.6562 25.915ZM4.7968 9.5087C4.65205 9.50869 4.5107 9.46483 4.39138 9.38289C4.27205 9.30096 4.18034 9.1848 4.12834 9.04971L3.3051 6.90907C3.28725 6.86226 3.25972 6.81974 3.22429 6.78431C3.18886 6.74889 3.14635 6.72135 3.09953 6.70351L0.958894 5.88026C0.823825 5.82825 0.707681 5.73653 0.625764 5.61721C0.543847 5.49788 0.5 5.35654 0.5 5.2118C0.5 5.06706 0.543847 4.92572 0.625764 4.80639C0.707681 4.68706 0.823825 4.59535 0.958894 4.54334L3.09953 3.72009C3.14631 3.7022 3.1888 3.67464 3.22422 3.63922C3.25964 3.6038 3.2872 3.56131 3.3051 3.51453L4.12102 1.39293C4.16703 1.26803 4.24621 1.15803 4.35005 1.07475C4.45389 0.991475 4.57846 0.938069 4.71038 0.920275C4.86875 0.901022 5.02902 0.935192 5.16577 1.01737C5.30252 1.09954 5.40792 1.22501 5.46526 1.37389L6.28851 3.51453C6.30641 3.56131 6.33396 3.6038 6.36938 3.63922C6.4048 3.67464 6.44729 3.7022 6.49408 3.72009L8.63471 4.54334C8.76978 4.59535 8.88593 4.68706 8.96784 4.80639C9.04976 4.92572 9.09361 5.06706 9.09361 5.2118C9.09361 5.35654 9.04976 5.49788 8.96784 5.61721C8.88593 5.73653 8.76978 5.82825 8.63471 5.88026L6.49408 6.70351C6.44726 6.72135 6.40474 6.74889 6.36932 6.78431C6.33389 6.81974 6.30635 6.86226 6.28851 6.90907L5.46526 9.04971C5.41326 9.1848 5.32156 9.30096 5.20223 9.38289C5.0829 9.46483 4.94155 9.50869 4.7968 9.5087ZM20.0312 13.415C19.8733 13.4149 19.7192 13.367 19.589 13.2776C19.4589 13.1882 19.3589 13.0614 19.3022 12.914L18.187 10.015C18.1674 9.96396 18.1373 9.91757 18.0986 9.87888C18.0599 9.84019 18.0135 9.81005 17.9624 9.79044L15.0635 8.6752C14.9162 8.61845 14.7895 8.51842 14.7002 8.38829C14.6109 8.25815 14.5631 8.10402 14.5631 7.94619C14.5631 7.78835 14.6109 7.63422 14.7002 7.50409C14.7895 7.37396 14.9162 7.27393 15.0635 7.21718L17.9624 6.10194C18.0135 6.08232 18.0599 6.05219 18.0986 6.0135C18.1373 5.9748 18.1674 5.92841 18.187 5.87733L19.2939 2.9989C19.3445 2.86278 19.431 2.74291 19.5442 2.65202C19.6574 2.56114 19.7932 2.50266 19.937 2.48278C20.1098 2.46186 20.2847 2.49926 20.4338 2.58905C20.583 2.67884 20.6979 2.81587 20.7603 2.97839L21.8755 5.87733C21.8951 5.92841 21.9252 5.9748 21.9639 6.0135C22.0026 6.05219 22.049 6.08232 22.1001 6.10194L24.999 7.21718C25.1463 7.27393 25.273 7.37396 25.3623 7.50409C25.4516 7.63422 25.4994 7.78835 25.4994 7.94619C25.4994 8.10402 25.4516 8.25815 25.3623 8.38829C25.273 8.51842 25.1463 8.61845 24.999 8.6752L22.1001 9.79044C22.049 9.81005 22.0026 9.84019 21.9639 9.87888C21.9252 9.91757 21.8951 9.96396 21.8755 10.015L20.7603 12.914C20.7036 13.0614 20.6036 13.1882 20.4735 13.2776C20.3433 13.367 20.1892 13.4149 20.0312 13.415Z" fill="white"/>
</svg>
